<svg xmlns="http://www.w3.org/2000/svg" version="1.1" xmlns:xlink="http://www.w3.org/1999/xlink" xmlns:svgjs="http://svgjs.dev/svgjs" width="2000" height="1500" viewBox="0 0 2000 1500"><rect width="2000" height="1500" fill="#000000"></rect><g transform="matrix(0.75,0,0,0.75,250,0)"><svg viewBox="0 0 280 280" data-background-color="#000000" preserveAspectRatio="xMidYMid meet" height="2000" width="2000" xmlns="http://www.w3.org/2000/svg" xmlns:xlink="http://www.w3.org/1999/xlink"><g id="tight-bounds" transform="matrix(1,0,0,1,0,0)"><svg viewBox="0 0 280 280" height="280" width="280"><g><svg viewBox="0 0 280 280" height="280" width="280"><g><svg viewBox="0 0 280 280" height="280" width="280"><g id="textblocktransform"><svg viewBox="0 0 280 280" height="280" width="280" id="textblock"><g><svg viewBox="0 0 280 280" height="280" width="280"><g transform="matrix(1,0,0,1,57.50420886156945,57.50420886156945)"><svg viewBox="0 0 164.9915822768611 164.9915822768611" height="164.9915822768611" width="164.9915822768611"><g id="icon-0"><svg xmlns="http://www.w3.org/2000/svg" xmlns:xlink="http://www.w3.org/1999/xlink" version="1.1" x="24.748737341529164" y="24.74873734152917" viewBox="25.319013706630393 31.071 49.36147007722591 37.85900000000001" enable-background="new 0 0 100 100" xml:space="preserve" height="115.49410759380275" width="115.49410759380275" class="icon-jxe-0" data-fill-palette-color="quaternary" id="jxe-0"><path d="M73.789 58.976A6.66 6.66 0 0 0 68.038 55.658C67.051 55.658 66.08 55.893 65.189 56.319L56.476 45.403A8.6 8.6 0 0 0 58.337 41.937 8.57 8.57 0 0 0 57.474 35.387 8.66 8.66 0 0 0 49.994 31.071C48.487 31.071 46.998 31.471 45.687 32.229A8.57 8.57 0 0 0 41.664 37.469 8.57 8.57 0 0 0 42.525 44.018C42.813 44.518 43.162 44.969 43.537 45.393L34.81 56.319A6.6 6.6 0 0 0 31.962 55.659 6.66 6.66 0 0 0 26.21 58.977 6.6 6.6 0 0 0 25.548 64.012 6.58 6.58 0 0 0 28.638 68.039 6.64 6.64 0 0 0 31.952 68.93 6.66 6.66 0 0 0 37.704 65.612 6.6 6.6 0 0 0 38.366 60.577 6.6 6.6 0 0 0 37.162 58.181L45.876 47.27A8.7 8.7 0 0 0 48.499 48.186V55.841A6.7 6.7 0 0 0 46.682 56.548 6.643 6.643 0 0 0 44.253 65.612 6.66 6.66 0 0 0 50.004 68.929 6.64 6.64 0 0 0 53.317 68.039C54.851 67.153 55.949 65.723 56.408 64.011S56.632 60.511 55.745 58.976A6.65 6.65 0 0 0 51.499 55.843V48.188A8.7 8.7 0 0 0 54.128 47.27L62.84 58.184C61.209 60.254 60.9 63.193 62.296 65.612A6.66 6.66 0 0 0 68.047 68.929 6.64 6.64 0 0 0 71.36 68.039C72.894 67.153 73.992 65.723 74.451 64.011S74.676 60.511 73.789 58.976" fill="#000000" data-fill-palette-color="quaternary"></path></svg></g></svg></g><g id="text-0"></g><g id="text-1"></g></svg></g></svg></g></svg></g></svg></g><defs></defs><mask id="4966f6d5-a488-48ab-ad20-dac580ccdd01"><g id="SvgjsG1243"><svg viewBox="0 0 280 280" height="280" width="280"><g><svg viewBox="0 0 280 280" height="280" width="280"><g><svg viewBox="0 0 280 280" height="280" width="280"><g id="SvgjsG1242"><svg viewBox="0 0 280 280" height="280" width="280" id="SvgjsSvg1241"><g><svg viewBox="0 0 280 280" height="280" width="280"><g transform="matrix(1,0,0,1,57.50420886156945,57.50420886156945)"><svg viewBox="0 0 164.9915822768611 164.9915822768611" height="164.9915822768611" width="164.9915822768611"><g id="SvgjsG1240"><circle r="82" cx="82.49579113843055" cy="82.49579113843055" fill="black"></circle><svg xmlns="http://www.w3.org/2000/svg" xmlns:xlink="http://www.w3.org/1999/xlink" version="1.1" x="24.748737341529164" y="24.74873734152917" viewBox="25.319013706630393 31.071 49.36147007722591 37.85900000000001" enable-background="new 0 0 100 100" xml:space="preserve" height="115.49410759380275" width="115.49410759380275" class="icon-jxe-0" data-fill-palette-color="quaternary" id="SvgjsSvg1239"><path d="M73.789 58.976A6.66 6.66 0 0 0 68.038 55.658C67.051 55.658 66.08 55.893 65.189 56.319L56.476 45.403A8.6 8.6 0 0 0 58.337 41.937 8.57 8.57 0 0 0 57.474 35.387 8.66 8.66 0 0 0 49.994 31.071C48.487 31.071 46.998 31.471 45.687 32.229A8.57 8.57 0 0 0 41.664 37.469 8.57 8.57 0 0 0 42.525 44.018C42.813 44.518 43.162 44.969 43.537 45.393L34.81 56.319A6.6 6.6 0 0 0 31.962 55.659 6.66 6.66 0 0 0 26.21 58.977 6.6 6.6 0 0 0 25.548 64.012 6.58 6.58 0 0 0 28.638 68.039 6.64 6.64 0 0 0 31.952 68.93 6.66 6.66 0 0 0 37.704 65.612 6.6 6.6 0 0 0 38.366 60.577 6.6 6.6 0 0 0 37.162 58.181L45.876 47.27A8.7 8.7 0 0 0 48.499 48.186V55.841A6.7 6.7 0 0 0 46.682 56.548 6.643 6.643 0 0 0 44.253 65.612 6.66 6.66 0 0 0 50.004 68.929 6.64 6.64 0 0 0 53.317 68.039C54.851 67.153 55.949 65.723 56.408 64.011S56.632 60.511 55.745 58.976A6.65 6.65 0 0 0 51.499 55.843V48.188A8.7 8.7 0 0 0 54.128 47.27L62.84 58.184C61.209 60.254 60.9 63.193 62.296 65.612A6.66 6.66 0 0 0 68.047 68.929 6.64 6.64 0 0 0 71.36 68.039C72.894 67.153 73.992 65.723 74.451 64.011S74.676 60.511 73.789 58.976" fill="black"></path></svg></g></svg></g><g id="SvgjsG1238"><path d="M26.871 102.011v0c-0.799 2.494-2.096 4.14-3.892 4.939-1.802 0.797-3.992 0.783-6.57-0.043v0l-4.782-1.532c-2.578-0.826-4.366-2.083-5.365-3.77-0.999-1.688-1.1-3.775-0.303-6.262v0c0.256-0.799 0.564-1.502 0.923-2.11 0.359-0.608 0.736-1.135 1.13-1.582 0.398-0.438 0.781-0.795 1.149-1.071v0l2.497 0.553c-0.641 0.482-1.261 1.085-1.858 1.81-0.6 0.732-1.08 1.662-1.443 2.793v0c-0.543 1.695-0.45 3.135 0.28 4.321 0.73 1.186 2.02 2.076 3.871 2.668v0l4.656 1.492c1.844 0.591 3.413 0.61 4.707 0.058 1.3-0.55 2.228-1.692 2.784-3.425v0c0.358-1.117 0.512-2.156 0.461-3.117-0.057-0.963-0.221-1.836-0.493-2.618v0l2.425 1.013c0.137 0.445 0.244 0.97 0.322 1.575 0.072 0.603 0.074 1.266 0.008 1.989-0.076 0.728-0.244 1.5-0.507 2.319z" fill="white"></path><path d="M33.319 86.978v0c-1.024 2.088-2.362 3.391-4.013 3.91-1.655 0.525-3.541 0.268-5.66-0.771v0l-2.213-1.085c-2.106-1.033-3.455-2.363-4.047-3.99-0.589-1.633-0.375-3.487 0.643-5.562v0c1.021-2.082 2.355-3.386 4.004-3.915 1.649-0.528 3.526-0.276 5.632 0.757v0l2.213 1.086c2.118 1.039 3.476 2.373 4.075 4.003 0.598 1.63 0.387 3.486-0.634 5.567zM31.354 86.014v0c0.633-1.292 0.731-2.459 0.293-3.502-0.438-1.043-1.376-1.917-2.815-2.622v0l-2.489-1.22c-1.426-0.7-2.683-0.902-3.769-0.607-1.086 0.295-1.946 1.088-2.58 2.381v0c-0.627 1.28-0.727 2.442-0.298 3.487 0.426 1.052 1.352 1.927 2.779 2.627v0l2.488 1.221c1.439 0.706 2.707 0.906 3.806 0.602 1.095-0.298 1.957-1.087 2.585-2.367z" fill="white"></path><path d="M46.374 65.377l-1.529 2.213-8.282-5.717c-0.718-0.496-1.401-0.827-2.049-0.992-0.657-0.164-1.282-0.123-1.875 0.122-0.592 0.246-1.152 0.75-1.678 1.514v0c-0.484 0.701-0.771 1.398-0.86 2.091-0.093 0.698-0.023 1.36 0.209 1.984 0.234 0.634 0.592 1.213 1.076 1.736v0l-1.848-0.691 0.332-0.479c-0.5-0.56-0.871-1.193-1.113-1.899-0.242-0.706-0.301-1.467-0.176-2.284 0.125-0.817 0.495-1.672 1.111-2.564v0c0.728-1.055 1.519-1.768 2.373-2.141 0.848-0.376 1.75-0.453 2.707-0.231 0.955 0.212 1.98 0.696 3.075 1.452v0zM40.226 74.282l-1.528 2.214-13.316-9.193 1.528-2.213 3.12 2.303 0.196-0.014z" fill="white"></path><path d="M54.111 57.536v0c-0.853 0.911-1.677 1.517-2.473 1.818-0.791 0.296-1.584 0.31-2.379 0.042-0.786-0.268-1.594-0.792-2.425-1.57v0l-7.459-6.983 1.811-1.934 7.227 6.767c0.771 0.722 1.509 1.077 2.213 1.063 0.699-0.009 1.443-0.433 2.23-1.274v0c0.443-0.473 0.819-0.98 1.13-1.521 0.306-0.536 0.543-1.089 0.712-1.659v0l1.505 1.76c-0.16 0.56-0.421 1.147-0.781 1.762-0.366 0.61-0.803 1.187-1.311 1.729zM46.408 45.097l-7.962 8.504-1.568-1.468 8.13-8.683zM40.651 48.492l-1.754 1.874-3.329-3.089 1.591-2.208z" fill="white"></path><path d="M69.318 43.607l-2.05 1.709-2.421-3.095-0.347-0.256-3.302-3.96-0.586-0.735c-0.843-1.011-1.722-1.543-2.637-1.597-0.919-0.059-1.937 0.376-3.052 1.306v0c-0.89 0.742-1.6 1.552-2.13 2.429-0.534 0.871-0.947 1.718-1.24 2.538v0l-1.272-1.909c0.159-0.47 0.382-0.984 0.67-1.544 0.284-0.565 0.661-1.15 1.133-1.757 0.466-0.602 1.042-1.188 1.728-1.76v0c0.896-0.747 1.744-1.272 2.546-1.578 0.802-0.305 1.567-0.415 2.296-0.329 0.723 0.09 1.414 0.348 2.072 0.776 0.658 0.428 1.287 1 1.885 1.718v0zM63.217 49.147v0c-1.231 1.026-2.425 1.516-3.583 1.469-1.157-0.056-2.198-0.64-3.123-1.75v0l-0.308-0.37c-0.956-1.147-1.315-2.295-1.075-3.445 0.235-1.155 1.034-2.487 2.395-3.995v0l3.464-3.847 1.376 1.41-3.342 3.706c-0.84 0.931-1.326 1.732-1.46 2.402-0.133 0.661 0.068 1.311 0.6 1.95v0l0.171 0.204c0.541 0.649 1.16 0.981 1.856 0.996 0.686 0.014 1.433-0.316 2.239-0.988v0c0.717-0.598 1.228-1.232 1.53-1.902 0.303-0.67 0.439-1.342 0.408-2.018-0.035-0.681-0.209-1.321-0.523-1.921v0l1.488 1.13-0.401 0.334c0.339 0.641 0.538 1.332 0.597 2.073 0.064 0.737-0.077 1.494-0.424 2.271-0.351 0.772-0.979 1.536-1.885 2.291z" fill="white"></path><path d="M79.152 37.8v0c-1.969 1.224-3.765 1.603-5.389 1.135-1.624-0.468-3.042-1.677-4.256-3.629v0l-1.334-2.145c-1.221-1.963-1.675-3.772-1.363-5.427 0.312-1.655 1.446-3.091 3.403-4.309v0c0.585-0.364 1.15-0.643 1.695-0.837 0.543-0.185 1.06-0.31 1.55-0.374 0.484-0.06 0.917-0.081 1.299-0.061v0l1.437 1.865c-0.655-0.059-1.357-0.019-2.107 0.118-0.752 0.146-1.536 0.474-2.353 0.981v0c-1.314 0.817-2.068 1.788-2.26 2.911-0.189 1.129 0.149 2.389 1.013 3.779v0l1.258 2.023c0.846 1.361 1.819 2.209 2.92 2.545 1.096 0.33 2.302 0.086 3.616-0.732v0c0.845-0.526 1.501-1.098 1.967-1.717 0.47-0.613 0.84-1.237 1.112-1.872v0l1.04 2.136c-0.235 0.539-0.614 1.137-1.138 1.792-0.515 0.657-1.218 1.263-2.11 1.818z" fill="white"></path><path d="M92.717 30.844v0c-1.136 0.515-2.13 0.76-2.98 0.734-0.844-0.029-1.582-0.319-2.215-0.871-0.623-0.548-1.17-1.341-1.64-2.379v0l-4.22-9.305 2.412-1.094 4.09 9.016c0.437 0.963 0.983 1.572 1.638 1.829 0.649 0.26 1.499 0.151 2.548-0.324v0c0.59-0.268 1.132-0.592 1.625-0.973 0.487-0.378 0.918-0.798 1.293-1.26v0l0.717 2.201c-0.362 0.456-0.827 0.899-1.396 1.329-0.571 0.424-1.196 0.789-1.872 1.097zM90.357 16.404l-10.609 4.812-0.888-1.956 10.833-4.913zM83.739 17.339l-2.338 1.061-1.894-4.128 2.315-1.432z" fill="white"></path><path d="M113.042 23.945l-2.624 0.493-3.111-20.968 4.192-0.787 7.759 14.123 0.221-0.041 2.123-15.977 4.202-0.788 4.699 20.67-2.623 0.492-1.94-8.731-2.001-9.167-0.301 0.056-2.219 16.577-2.814 0.528-8.076-14.646-0.301 0.057 1.441 9.293z" fill="white"></path><path d="M147.833 20.618l-2.67 0.012 0.105-3.928-0.104-0.419-0.024-5.154 0.016-0.941c-0.006-1.316-0.345-2.286-1.016-2.911-0.671-0.631-1.733-0.943-3.185-0.936v0c-1.159 0.005-2.222 0.177-3.189 0.516-0.967 0.332-1.824 0.721-2.572 1.167v0l0.235-2.282c0.422-0.261 0.922-0.516 1.5-0.763 0.578-0.255 1.242-0.466 1.992-0.634 0.742-0.167 1.56-0.253 2.453-0.256v0c1.166-0.005 2.155 0.13 2.968 0.405 0.813 0.276 1.473 0.678 1.98 1.208 0.5 0.53 0.868 1.169 1.103 1.918 0.235 0.749 0.355 1.591 0.359 2.525v0zM139.601 21.004v0c-1.602 0.007-2.835-0.376-3.698-1.149-0.856-0.78-1.287-1.893-1.293-3.339v0l-0.003-0.48c-0.007-1.493 0.448-2.607 1.366-3.341 0.917-0.741 2.381-1.259 4.391-1.555v0l5.12-0.76 0.163 1.963-4.937 0.729c-1.24 0.183-2.125 0.491-2.655 0.923-0.523 0.425-0.783 1.054-0.779 1.885v0l0.001 0.266c0.004 0.846 0.269 1.495 0.797 1.95 0.52 0.448 1.305 0.669 2.355 0.664v0c0.934-0.004 1.731-0.168 2.392-0.492 0.66-0.324 1.193-0.756 1.599-1.296 0.407-0.547 0.68-1.152 0.82-1.814v0l0.428 1.819-0.521 0.002c-0.147 0.71-0.433 1.369-0.861 1.978-0.42 0.609-1.011 1.102-1.773 1.481-0.762 0.372-1.733 0.56-2.912 0.566z" fill="white"></path><path d="M166.328 23.109l-2.663-0.377 1.411-9.965c0.122-0.864 0.113-1.623-0.029-2.277-0.147-0.661-0.463-1.202-0.948-1.622-0.485-0.42-1.186-0.695-2.104-0.825v0c-0.844-0.12-1.596-0.064-2.255 0.166-0.666 0.229-1.226 0.587-1.68 1.074-0.462 0.492-0.82 1.072-1.073 1.739v0l-0.208-1.961 0.577 0.081c0.278-0.698 0.678-1.312 1.202-1.844 0.523-0.532 1.178-0.925 1.964-1.178 0.787-0.254 1.717-0.304 2.79-0.152v0c1.269 0.18 2.261 0.568 2.975 1.165 0.715 0.59 1.188 1.363 1.418 2.318 0.237 0.95 0.263 2.083 0.076 3.399v0zM155.614 21.591l-2.664-0.377 2.27-16.021 2.663 0.377-0.665 3.821 0.1 0.169z" fill="white"></path><path d="M183.001 28.099l-2.555-0.774 1.255-3.723 0.024-0.431 1.494-4.934 0.292-0.895c0.381-1.26 0.343-2.286-0.115-3.08-0.456-0.801-1.379-1.411-2.769-1.832v0c-1.109-0.336-2.176-0.484-3.199-0.445-1.022 0.033-1.955 0.153-2.802 0.36v0l0.896-2.112c0.48-0.126 1.032-0.222 1.658-0.289 0.628-0.074 1.324-0.08 2.09-0.019 0.759 0.059 1.566 0.217 2.42 0.476v0c1.116 0.338 2.022 0.758 2.717 1.261 0.696 0.503 1.208 1.082 1.537 1.736 0.322 0.653 0.486 1.372 0.491 2.158 0.005 0.785-0.128 1.625-0.399 2.519v0zM175.02 26.046v0c-1.534-0.464-2.599-1.193-3.196-2.185-0.589-0.997-0.673-2.188-0.255-3.572v0l0.139-0.46c0.433-1.429 1.195-2.36 2.288-2.791 1.094-0.438 2.646-0.503 4.654-0.194v0l5.118 0.779-0.422 1.924-4.933-0.755c-1.239-0.19-2.175-0.156-2.809 0.1-0.625 0.253-1.058 0.777-1.299 1.573v0l-0.077 0.255c-0.245 0.809-0.182 1.509 0.188 2.098 0.366 0.581 1.051 1.023 2.056 1.327v0c0.894 0.271 1.704 0.348 2.43 0.234 0.726-0.115 1.363-0.371 1.91-0.768 0.55-0.404 0.989-0.901 1.317-1.493v0l-0.126 1.864-0.499-0.151c-0.349 0.635-0.817 1.181-1.404 1.637-0.58 0.458-1.29 0.756-2.13 0.894-0.838 0.131-1.821 0.026-2.95-0.316z" fill="white"></path><path d="M195.391 28.515v0c-1.986-0.953-3.299-2.117-3.94-3.491-0.647-1.377-0.583-2.874 0.193-4.491v0l0.177-0.369c0.484-1.008 1.112-1.788 1.883-2.341 0.775-0.543 1.716-0.81 2.824-0.8 1.113 0.013 2.41 0.351 3.891 1.017v0l7.556 3.332-0.916 1.908-4.318-2.254-0.067 0.093c0.621 0.472 1.068 0.982 1.342 1.529 0.274 0.548 0.396 1.128 0.367 1.741-0.027 0.607-0.204 1.252-0.532 1.935v0l-0.155 0.323c-0.744 1.549-1.817 2.486-3.221 2.81-1.41 0.322-3.105 0.007-5.084-0.942zM191.431 36.507v0l0.341 0.163c0.897 0.431 1.698 0.732 2.403 0.904 0.71 0.175 1.307 0.2 1.789 0.076 0.489-0.121 0.849-0.421 1.079-0.9v0l0.027-0.055c0.268-0.559 0.274-1.083 0.016-1.57-0.264-0.49-0.864-1.012-1.801-1.567v0l-3.94-2.357 0.696 0.3c-0.592-0.186-1.142-0.291-1.652-0.316-0.51-0.025-0.955 0.052-1.337 0.232-0.381 0.18-0.677 0.488-0.886 0.924v0l-0.014 0.028c-0.245 0.51-0.266 1.003-0.063 1.479 0.194 0.479 0.579 0.936 1.157 1.372 0.577 0.436 1.306 0.865 2.185 1.287zM190.801 38.575l-0.433-0.208c-1.316-0.631-2.395-1.289-3.239-1.974-0.847-0.679-1.41-1.395-1.691-2.15-0.281-0.755-0.217-1.556 0.19-2.405v0l0.026-0.055c0.286-0.596 0.667-1.026 1.142-1.29 0.481-0.261 1.015-0.39 1.604-0.388 0.598-0.001 1.214 0.102 1.848 0.309v0l0.022-0.092c-0.744-0.531-1.229-1.063-1.458-1.596-0.222-0.53-0.202-1.069 0.061-1.616v0l0.009-0.018c0.18-0.375 0.421-0.656 0.722-0.844 0.308-0.185 0.676-0.273 1.103-0.265 0.433 0.011 0.932 0.13 1.497 0.355v0l0.142-0.295 2.448 2.038-1.13-0.577c-0.679-0.318-1.185-0.463-1.517-0.433-0.332 0.03-0.573 0.201-0.723 0.515v0l-0.005 0.009c-0.159 0.332-0.094 0.669 0.195 1.013 0.286 0.349 0.848 0.785 1.687 1.308v0l3.368 2.059c1.466 0.9 2.416 1.814 2.848 2.74 0.427 0.923 0.369 1.95-0.174 3.082v0l-0.035 0.074c-0.437 0.91-1.064 1.524-1.883 1.842-0.812 0.321-1.777 0.376-2.893 0.165-1.11-0.208-2.354-0.642-3.731-1.303zM196.227 26.703v0c0.836 0.401 1.588 0.615 2.256 0.641 0.671 0.02 1.266-0.149 1.785-0.505 0.522-0.362 0.954-0.9 1.296-1.613v0l0.173-0.359c0.336-0.701 0.486-1.359 0.448-1.975-0.041-0.625-0.274-1.194-0.7-1.708-0.426-0.515-1.054-0.971-1.884-1.37v0l-0.092-0.044c-0.891-0.428-1.685-0.642-2.38-0.643-0.698 0.005-1.292 0.193-1.78 0.564-0.488 0.371-0.89 0.885-1.205 1.543v0l-0.168 0.35c-0.342 0.713-0.49 1.383-0.444 2.011 0.05 0.621 0.297 1.194 0.742 1.717 0.454 0.52 1.105 0.984 1.953 1.391z" fill="white"></path><path d="M208.975 42.384v0c-2.049-1.364-3.259-2.894-3.629-4.59-0.37-1.696 0.066-3.478 1.309-5.346v0l1.598-2.401c1.262-1.896 2.715-3.034 4.36-3.413 1.649-0.385 3.404 0.042 5.266 1.28v0c1.249 0.831 2.136 1.757 2.66 2.778 0.53 1.025 0.725 2.104 0.584 3.239-0.15 1.137-0.62 2.298-1.409 3.485v0l-0.335 0.502c-0.193 0.29-0.399 0.574-0.617 0.855-0.219 0.28-0.443 0.549-0.672 0.806v0l-2.052-1.366c0.308-0.426 0.597-0.835 0.867-1.229 0.27-0.394 0.515-0.755 0.734-1.084v0c0.544-0.817 0.874-1.597 0.991-2.338 0.111-0.745 0.006-1.437-0.314-2.076-0.322-0.648-0.872-1.231-1.65-1.749v0c-1.164-0.774-2.258-1.019-3.282-0.735-1.029 0.29-1.958 1.06-2.79 2.309v0l-0.855 1.285-0.165 0.284-0.855 1.286c-0.374 0.562-0.628 1.122-0.762 1.68-0.138 0.564-0.138 1.124-0.001 1.682 0.139 0.567 0.424 1.117 0.855 1.65 0.437 0.537 1.033 1.056 1.788 1.559v0c0.874 0.582 1.766 1.007 2.676 1.277 0.9 0.272 1.815 0.43 2.744 0.474v0l-1.491 1.797c-0.851-0.026-1.747-0.188-2.687-0.485-0.94-0.298-1.896-0.77-2.866-1.416zM217.622 39.267l-9.571-6.369 1.116-1.677 9.571 6.369z" fill="white"></path><path d="M233.987 64.323l-1.926-1.863 7.042-7.277c0.593-0.613 1.029-1.22 1.308-1.822 0.28-0.593 0.361-1.187 0.246-1.784-0.116-0.586-0.47-1.166-1.063-1.74v0c-0.564-0.545-1.165-0.904-1.805-1.077-0.634-0.168-1.266-0.182-1.895-0.041-0.625 0.136-1.228 0.401-1.81 0.796v0l1.029-1.651 0.235 0.227c0.616-0.381 1.282-0.638 1.998-0.77 0.716-0.142 1.46-0.091 2.231 0.151 0.771 0.233 1.538 0.72 2.302 1.46v0c0.862 0.835 1.392 1.679 1.589 2.534 0.197 0.855 0.101 1.729-0.289 2.623-0.386 0.889-1.031 1.801-1.937 2.737v0zM219.471 50.276l-1.933-1.871 11.252-11.627 1.933 1.87-2.784 2.701-0.033 0.21zM226.725 57.296l-1.918-1.856 7.041-7.277c0.593-0.613 1.029-1.22 1.309-1.822 0.275-0.598 0.359-1.19 0.253-1.777-0.111-0.582-0.465-1.162-1.063-1.74v0c-0.568-0.55-1.172-0.911-1.812-1.084-0.634-0.168-1.269-0.179-1.903-0.034-0.639 0.15-1.252 0.426-1.838 0.826v0l0.977-1.716 0.426 0.413c0.625-0.41 1.293-0.689 2.005-0.836 0.711-0.147 1.445-0.106 2.201 0.123 0.756 0.229 1.497 0.694 2.222 1.396v0c1.068 1.034 1.614 2.102 1.636 3.206 0.023 1.094-0.412 2.244-1.303 3.45v0c-0.113 0.195-0.252 0.392-0.417 0.593-0.161 0.205-0.329 0.398-0.504 0.579v0z" fill="white"></path><path d="M240.288 74.1v0c-1.411-2.017-1.98-3.882-1.707-5.597 0.273-1.714 1.329-3.215 3.167-4.5v0l2.363-1.654c1.866-1.306 3.634-1.836 5.305-1.59 1.676 0.242 3.155 1.279 4.437 3.112v0c0.86 1.229 1.348 2.414 1.465 3.556 0.12 1.147-0.092 2.224-0.637 3.23-0.554 1.004-1.415 1.914-2.583 2.731v0l-0.494 0.346c-0.285 0.199-0.58 0.39-0.887 0.57-0.306 0.181-0.613 0.35-0.919 0.506v0l-1.413-2.019c0.442-0.284 0.86-0.56 1.255-0.829 0.395-0.268 0.754-0.515 1.079-0.742v0c0.804-0.563 1.396-1.168 1.775-1.816 0.375-0.654 0.53-1.336 0.464-2.048-0.064-0.721-0.363-1.464-0.899-2.23v0c-0.801-1.145-1.731-1.772-2.789-1.881-1.064-0.105-2.21 0.273-3.439 1.134v0l-1.265 0.885-0.256 0.204-1.266 0.886c-0.553 0.387-0.994 0.816-1.321 1.287-0.334 0.475-0.538 0.997-0.615 1.566-0.078 0.579-0.013 1.195 0.195 1.848 0.212 0.659 0.577 1.36 1.098 2.103v0c0.602 0.86 1.278 1.582 2.026 2.165 0.74 0.581 1.534 1.062 2.382 1.442v0l-2.043 1.13c-0.783-0.334-1.558-0.811-2.325-1.432-0.767-0.62-1.485-1.408-2.153-2.363zM249.476 74.349l-6.592-9.419 1.651-1.155 6.592 9.419z" fill="white"></path><path d="M252.333 95.135l-1.207-2.404 8.993-4.518c0.78-0.392 1.398-0.832 1.855-1.32 0.46-0.498 0.724-1.066 0.793-1.704 0.069-0.637-0.105-1.371-0.521-2.199v0c-0.383-0.762-0.856-1.348-1.421-1.758-0.568-0.417-1.181-0.673-1.841-0.77-0.668-0.099-1.348-0.063-2.039 0.109v0l1.493-1.288 0.262 0.521c0.732-0.169 1.465-0.19 2.2-0.063 0.735 0.127 1.431 0.441 2.087 0.943 0.657 0.502 1.228 1.237 1.715 2.206v0c0.575 1.146 0.821 2.182 0.738 3.109-0.078 0.924-0.443 1.753-1.098 2.485-0.645 0.736-1.562 1.403-2.75 2v0zM247.476 85.465l-1.207-2.404 14.459-7.263 1.207 2.404-3.519 1.63-0.082 0.179z" fill="white"></path><path d="M255.494 105.687v0c-0.389-1.186-0.525-2.2-0.407-3.042 0.12-0.836 0.489-1.538 1.106-2.107 0.613-0.56 1.46-1.018 2.542-1.373v0l9.708-3.187 0.826 2.517-9.407 3.088c-1.004 0.33-1.669 0.806-1.995 1.431-0.328 0.617-0.313 1.473 0.046 2.568v0c0.202 0.615 0.466 1.189 0.791 1.721 0.323 0.525 0.694 0.999 1.113 1.422v0l-2.266 0.475c-0.414-0.409-0.804-0.92-1.17-1.532-0.359-0.614-0.655-1.274-0.887-1.981zM270.104 104.906l-3.634-11.068 2.04-0.67 3.711 11.301zM269.891 98.226l-0.801-2.439 4.309-1.436 1.172 2.457z" fill="white"></path><path d="M9.195 142.064c0-1.365 1.106-2.471 2.471-2.471 1.365 0 2.471 1.106 2.472 2.471 0 1.365-1.106 2.471-2.472 2.472-1.365 0-2.471-1.106-2.471-2.472z" fill="white"></path><path d="M266.944 142.064c0-1.365 1.106-2.471 2.471-2.471 1.365 0 2.471 1.106 2.472 2.471 0 1.365-1.106 2.471-2.472 2.472-1.365 0-2.471-1.106-2.471-2.472z" fill="white"></path></g><g id="SvgjsG1237"><path d="M10.742 187.285v0c-0.799-2.494-0.7-4.587 0.296-6.281 1.003-1.696 2.794-2.957 5.372-3.783v0l4.782-1.532c2.578-0.826 4.764-0.842 6.558-0.05 1.793 0.793 3.089 2.433 3.885 4.92v0c0.256 0.799 0.414 1.55 0.475 2.254 0.061 0.704 0.061 1.352 0 1.944-0.069 0.588-0.174 1.101-0.313 1.539v0l-2.353 1.001c0.242-0.765 0.395-1.616 0.46-2.553 0.063-0.944-0.087-1.981-0.449-3.111v0c-0.543-1.695-1.456-2.813-2.739-3.354-1.283-0.541-2.85-0.515-4.701 0.078v0l-4.656 1.492c-1.844 0.591-3.132 1.487-3.864 2.688-0.739 1.203-0.83 2.672-0.275 4.405v0c0.358 1.117 0.836 2.052 1.436 2.805 0.606 0.751 1.247 1.366 1.922 1.844v0l-2.562 0.584c-0.37-0.282-0.762-0.647-1.177-1.094-0.409-0.449-0.796-0.987-1.162-1.614-0.361-0.636-0.673-1.363-0.935-2.182z" fill="white"></path><path d="M18.039 204.644v0c-1.024-2.088-1.235-3.943-0.634-5.567 0.598-1.63 1.956-2.964 4.074-4.003v0l2.213-1.086c2.106-1.033 3.983-1.285 5.632-0.757 1.652 0.534 2.986 1.839 4.005 3.915v0c1.021 2.082 1.235 3.936 0.643 5.563-0.592 1.627-1.941 2.957-4.047 3.989v0l-2.213 1.085c-2.118 1.039-4.005 1.296-5.66 0.771-1.655-0.525-2.993-1.828-4.013-3.91zM20.004 203.68v0c0.633 1.292 1.496 2.084 2.589 2.376 1.093 0.292 2.358 0.085 3.797-0.62v0l2.488-1.221c1.426-0.7 2.356-1.569 2.788-2.608 0.432-1.04 0.331-2.205-0.303-3.497v0c-0.627-1.28-1.486-2.07-2.575-2.372-1.092-0.307-2.352-0.111-3.778 0.589v0l-2.489 1.22c-1.439 0.706-2.374 1.586-2.806 2.641-0.435 1.049-0.339 2.213 0.289 3.492z" fill="white"></path><path d="M33.058 227.944l-1.528-2.214 8.282-5.718c0.718-0.496 1.27-1.017 1.655-1.564 0.386-0.557 0.57-1.155 0.549-1.796-0.02-0.641-0.293-1.343-0.82-2.106v0c-0.484-0.701-1.034-1.216-1.65-1.545-0.62-0.334-1.263-0.503-1.929-0.508-0.675-0.006-1.344 0.124-2.006 0.39v0l1.301-1.482 0.332 0.479c0.701-0.269 1.425-0.391 2.17-0.367 0.746 0.024 1.478 0.239 2.198 0.646 0.72 0.406 1.387 1.056 2.003 1.947v0c0.728 1.055 1.115 2.047 1.16 2.978 0.051 0.926-0.197 1.797-0.743 2.613-0.537 0.818-1.353 1.605-2.447 2.361v0zM26.911 219.038l-1.529-2.213 13.316-9.193 1.528 2.214-3.259 2.101-0.057 0.188z" fill="white"></path><path d="M41.823 238.098v0c-0.853-0.911-1.403-1.773-1.652-2.587-0.244-0.809-0.205-1.601 0.114-2.377 0.319-0.766 0.895-1.538 1.726-2.316v0l7.459-6.984 1.81 1.934-7.227 6.767c-0.771 0.722-1.174 1.435-1.206 2.138-0.037 0.698 0.338 1.468 1.125 2.309v0c0.443 0.473 0.924 0.882 1.443 1.227 0.515 0.34 1.051 0.613 1.609 0.82v0l-1.855 1.386c-0.548-0.197-1.117-0.495-1.707-0.895-0.585-0.405-1.131-0.879-1.639-1.422zM54.741 231.229l-7.963-8.504 1.568-1.468 8.13 8.683zM51.731 225.262l-1.754-1.874 3.301-3.119 2.099 1.733z" fill="white"></path><path d="M58.956 252.949l-2.05-1.71 2.609-2.938 0.19-0.388 3.302-3.959 0.618-0.709c0.843-1.011 1.208-1.971 1.097-2.881-0.107-0.915-0.718-1.837-1.834-2.768v0c-0.89-0.742-1.814-1.295-2.772-1.658-0.953-0.369-1.86-0.623-2.72-0.763v0l1.649-1.595c0.491 0.072 1.037 0.199 1.64 0.382 0.607 0.177 1.25 0.443 1.931 0.798 0.676 0.35 1.356 0.811 2.043 1.383v0c0.896 0.747 1.565 1.487 2.009 2.222 0.444 0.734 0.69 1.467 0.737 2.199 0.042 0.727-0.089 1.453-0.391 2.177-0.302 0.725-0.753 1.446-1.351 2.163v0zM52.41 247.943v0c-1.231-1.026-1.927-2.113-2.089-3.26-0.152-1.148 0.234-2.277 1.16-3.388v0l0.308-0.369c0.956-1.147 2.022-1.706 3.195-1.676 1.179 0.024 2.632 0.57 4.361 1.638v0l4.407 2.716-1.14 1.606-4.246-2.621c-1.067-0.659-1.942-0.993-2.625-1.004-0.674-0.012-1.277 0.302-1.81 0.941v0l-0.171 0.204c-0.541 0.649-0.757 1.318-0.646 2.005 0.11 0.678 0.568 1.352 1.375 2.025v0c0.717 0.598 1.433 0.986 2.146 1.163 0.713 0.177 1.399 0.19 2.058 0.039 0.664-0.157 1.262-0.444 1.796-0.86v0l-0.844 1.667-0.401-0.334c-0.569 0.449-1.213 0.768-1.931 0.959-0.713 0.195-1.483 0.193-2.311-0.009-0.822-0.206-1.687-0.687-2.592-1.442z" fill="white"></path><path d="M70.218 260.694v0c-1.969-1.224-3.102-2.668-3.401-4.331-0.299-1.663 0.159-3.47 1.373-5.422v0l1.334-2.145c1.221-1.963 2.642-3.171 4.265-3.623 1.622-0.452 3.412-0.07 5.369 1.146v0c0.585 0.364 1.085 0.747 1.501 1.151 0.406 0.405 0.747 0.814 1.02 1.225 0.268 0.408 0.478 0.787 0.63 1.138v0l-1.038 2.113c-0.237-0.613-0.583-1.226-1.037-1.838-0.464-0.61-1.104-1.168-1.92-1.676v0c-1.314-0.817-2.518-1.064-3.611-0.74-1.096 0.33-2.077 1.19-2.941 2.579v0l-1.259 2.024c-0.846 1.361-1.177 2.609-0.991 3.744 0.189 1.129 0.941 2.103 2.255 2.92v0c0.845 0.526 1.649 0.861 2.41 1.005 0.758 0.15 1.481 0.207 2.171 0.17v0l-1.456 1.876c-0.588 0.028-1.291-0.048-2.11-0.228-0.817-0.171-1.672-0.534-2.564-1.088z" fill="white"></path><path d="M85.763 268.616v0c-1.136-0.515-1.975-1.102-2.515-1.759-0.534-0.654-0.802-1.401-0.804-2.239 0.002-0.83 0.238-1.764 0.709-2.801v0l4.221-9.306 2.412 1.095-4.089 9.016c-0.437 0.963-0.535 1.775-0.297 2.437 0.232 0.659 0.873 1.227 1.923 1.704v0c0.59 0.268 1.191 0.461 1.802 0.581 0.606 0.117 1.206 0.165 1.8 0.143v0l-1.183 1.99c-0.582 0.028-1.222-0.03-1.92-0.174-0.695-0.151-1.381-0.379-2.059-0.687zM95.072 257.328l-10.609-4.812 0.887-1.956 10.833 4.914zM90.009 252.966l-2.338-1.061 1.857-4.144 2.603 0.799z" fill="white"></path><path d="M110.059 276.086l-2.624-0.493 4.699-20.67 4.192 0.787 2.113 15.974 0.222 0.042 7.768-14.121 4.202 0.788-3.111 20.968-2.624-0.492 1.357-8.841 1.458-9.269-0.302-0.057-8.075 14.647-2.815-0.528-2.218-16.578-0.302-0.056-2.024 9.184z" fill="white"></path><path d="M147.758 279.69l-2.669-0.012 0.141-3.927-0.101-0.42 0.024-5.155 0.025-0.941c0.006-1.316-0.324-2.289-0.989-2.919-0.665-0.637-1.724-0.959-3.176-0.966v0c-1.159-0.005-2.224 0.157-3.194 0.486-0.97 0.323-1.831 0.704-2.583 1.144v0l0.256-2.279c0.424-0.257 0.926-0.507 1.507-0.75 0.581-0.25 1.247-0.455 1.998-0.615 0.744-0.16 1.563-0.238 2.455-0.234v0c1.166 0.005 2.154 0.15 2.965 0.433 0.81 0.283 1.466 0.692 1.968 1.226 0.495 0.534 0.857 1.177 1.085 1.928 0.228 0.751 0.34 1.594 0.337 2.528v0zM139.523 280v0c-1.602-0.007-2.831-0.402-3.687-1.183-0.849-0.788-1.27-1.905-1.263-3.351v0l0.002-0.48c0.007-1.493 0.472-2.603 1.397-3.328 0.924-0.732 2.392-1.237 4.405-1.514v0l5.127-0.713 0.145 1.965-4.944 0.683c-1.242 0.172-2.13 0.471-2.663 0.898-0.527 0.42-0.792 1.046-0.796 1.878v0l-0.002 0.266c-0.004 0.846 0.256 1.498 0.779 1.957 0.516 0.452 1.299 0.681 2.349 0.686v0c0.934 0.004 1.733-0.152 2.396-0.47 0.663-0.317 1.2-0.745 1.611-1.281 0.412-0.544 0.691-1.146 0.837-1.807v0l0.411 1.823-0.522-0.002c-0.153 0.708-0.446 1.365-0.878 1.969-0.426 0.605-1.021 1.093-1.786 1.465-0.765 0.365-1.738 0.544-2.918 0.539z" fill="white"></path><path d="M168.597 277.04l-2.663 0.377-1.412-9.965c-0.122-0.864-0.342-1.591-0.66-2.179-0.325-0.594-0.779-1.026-1.361-1.295-0.582-0.269-1.332-0.338-2.25-0.208v0c-0.844 0.12-1.551 0.381-2.12 0.786-0.576 0.405-1.015 0.905-1.317 1.498-0.307 0.601-0.49 1.257-0.547 1.968v0l-0.745-1.826 0.578-0.082c0.073-0.747 0.287-1.449 0.642-2.105 0.355-0.656 0.875-1.215 1.559-1.678 0.685-0.462 1.565-0.769 2.638-0.921v0c1.269-0.18 2.33-0.082 3.182 0.293 0.851 0.368 1.52 0.98 2.006 1.834 0.492 0.846 0.831 1.928 1.017 3.244v0zM157.883 278.557l-2.663 0.378-2.27-16.021 2.664-0.377 0.422 3.855 0.143 0.135z" fill="white"></path><path d="M187.689 271.516l-2.555 0.773-1.021-3.795-0.219-0.371-1.493-4.934-0.254-0.907c-0.381-1.26-0.983-2.093-1.803-2.499-0.823-0.413-1.93-0.41-3.32 0.011v0c-1.109 0.336-2.079 0.804-2.909 1.404-0.832 0.594-1.543 1.211-2.133 1.853v0l-0.425-2.254c0.33-0.37 0.736-0.757 1.219-1.16 0.482-0.409 1.058-0.801 1.728-1.175 0.664-0.372 1.423-0.687 2.279-0.946v0c1.116-0.338 2.103-0.49 2.96-0.458 0.858 0.032 1.605 0.23 2.242 0.593 0.63 0.365 1.165 0.873 1.605 1.523 0.439 0.651 0.794 1.423 1.064 2.317v0zM179.909 274.234v0c-1.534 0.464-2.824 0.449-3.872-0.046-1.043-0.504-1.774-1.447-2.192-2.831v0l-0.14-0.46c-0.433-1.429-0.314-2.626 0.356-3.592 0.668-0.972 1.923-1.886 3.765-2.742v0l4.691-2.19 0.716 1.836-4.524 2.106c-1.136 0.529-1.897 1.076-2.281 1.642-0.38 0.557-0.45 1.233-0.209 2.029v0l0.077 0.255c0.245 0.809 0.685 1.356 1.32 1.641 0.626 0.281 1.442 0.269 2.447-0.035v0c0.894-0.271 1.611-0.655 2.151-1.154 0.54-0.498 0.928-1.065 1.164-1.698 0.234-0.641 0.323-1.298 0.268-1.973v0l0.929 1.621-0.499 0.151c0.062 0.722-0.025 1.436-0.26 2.141-0.229 0.703-0.654 1.345-1.277 1.926-0.624 0.574-1.501 1.031-2.63 1.373z" fill="white"></path><path d="M198.206 261.478v0c-1.986 0.953-3.715 1.25-5.189 0.89-1.479-0.356-2.607-1.343-3.383-2.959v0l-0.177-0.369c-0.484-1.008-0.7-1.986-0.648-2.934 0.061-0.944 0.442-1.846 1.142-2.703 0.706-0.861 1.782-1.661 3.227-2.4v0l7.326-3.812 0.917 1.909-4.46 1.959 0.03 0.111c0.756-0.189 1.434-0.219 2.032-0.091 0.599 0.129 1.128 0.396 1.589 0.803 0.457 0.401 0.849 0.942 1.177 1.625v0l0.154 0.323c0.744 1.549 0.803 2.973 0.178 4.271-0.631 1.301-1.936 2.427-3.915 3.377zM201.964 269.567v0l0.341-0.164c0.897-0.431 1.633-0.867 2.208-1.309 0.581-0.445 0.974-0.895 1.179-1.349 0.212-0.457 0.203-0.925-0.028-1.405v0l-0.026-0.055c-0.268-0.559-0.673-0.891-1.215-0.994-0.547-0.1-1.33 0.041-2.349 0.424v0l-4.303 1.6 0.669-0.355c-0.515 0.345-0.942 0.709-1.28 1.091-0.339 0.382-0.557 0.778-0.655 1.188-0.098 0.41-0.042 0.833 0.167 1.27v0l0.013 0.027c0.245 0.51 0.616 0.835 1.114 0.975 0.495 0.148 1.093 0.134 1.794-0.045 0.701-0.178 1.491-0.478 2.371-0.899zM203.184 271.352l-0.434 0.208c-1.316 0.631-2.504 1.062-3.566 1.292-1.059 0.236-1.971 0.227-2.735-0.026-0.764-0.253-1.35-0.804-1.758-1.652v0l-0.026-0.055c-0.286-0.596-0.384-1.162-0.293-1.698 0.097-0.538 0.331-1.036 0.701-1.493 0.374-0.467 0.839-0.883 1.397-1.25v0l-0.058-0.074c-0.879 0.248-1.598 0.294-2.157 0.139-0.552-0.158-0.96-0.511-1.222-1.058v0l-0.009-0.018c-0.18-0.375-0.249-0.739-0.207-1.092 0.048-0.356 0.21-0.698 0.483-1.027 0.28-0.331 0.684-0.646 1.214-0.945v0l-0.141-0.295 3.121-0.636-1.157 0.521c-0.673 0.331-1.102 0.635-1.287 0.913-0.184 0.278-0.201 0.573-0.05 0.886v0l0.004 0.009c0.159 0.332 0.463 0.492 0.912 0.482 0.451-0.005 1.143-0.171 2.075-0.497v0l3.714-1.34c1.62-0.581 2.926-0.75 3.919-0.509 0.987 0.245 1.752 0.933 2.296 2.064v0l0.035 0.074c0.437 0.91 0.523 1.783 0.26 2.621-0.257 0.835-0.818 1.621-1.681 2.36-0.857 0.736-1.974 1.435-3.35 2.096zM197.315 259.693v0c0.836-0.401 1.473-0.855 1.911-1.36 0.435-0.511 0.676-1.081 0.723-1.708 0.044-0.634-0.105-1.307-0.447-2.02v0l-0.173-0.36c-0.336-0.701-0.756-1.229-1.26-1.585-0.513-0.359-1.103-0.533-1.771-0.523-0.668 0.011-1.417 0.215-2.247 0.614v0l-0.092 0.044c-0.891 0.428-1.555 0.913-1.991 1.454-0.433 0.548-0.657 1.128-0.673 1.742-0.016 0.613 0.134 1.248 0.45 1.905v0l0.168 0.351c0.342 0.713 0.773 1.248 1.292 1.604 0.516 0.35 1.117 0.515 1.803 0.495 0.69-0.029 1.459-0.246 2.307-0.653z" fill="white"></path><path d="M218.347 255.828v0c-2.049 1.364-3.928 1.889-5.635 1.575-1.707-0.313-3.183-1.404-4.426-3.271v0l-1.597-2.402c-1.262-1.896-1.75-3.676-1.465-5.339 0.281-1.67 1.353-3.124 3.214-4.363v0c1.249-0.831 2.445-1.291 3.59-1.382 1.15-0.094 2.221 0.144 3.213 0.712 0.99 0.578 1.88 1.46 2.67 2.646v0l0.335 0.503c0.193 0.29 0.376 0.589 0.549 0.899 0.174 0.31 0.335 0.621 0.485 0.931v0l-2.052 1.366c-0.274-0.448-0.54-0.873-0.799-1.275-0.259-0.401-0.498-0.766-0.717-1.095v0c-0.544-0.817-1.135-1.423-1.774-1.817-0.645-0.39-1.323-0.561-2.037-0.513-0.722 0.047-1.473 0.329-2.25 0.847v0c-1.164 0.774-1.812 1.689-1.945 2.744-0.129 1.061 0.221 2.216 1.052 3.465v0l0.856 1.285 0.198 0.261 0.855 1.286c0.374 0.562 0.792 1.012 1.256 1.352 0.467 0.345 0.984 0.562 1.551 0.65 0.577 0.091 1.194 0.041 1.853-0.151 0.664-0.196 1.373-0.545 2.128-1.048v0c0.874-0.582 1.611-1.24 2.212-1.975 0.598-0.726 1.097-1.508 1.496-2.348v0l1.082 2.069c-0.352 0.775-0.848 1.539-1.485 2.291-0.638 0.752-1.442 1.451-2.413 2.097zM218.811 246.649l-9.57 6.369-1.117-1.678 9.571-6.369z" fill="white"></path><path d="M245.239 231.432l-1.926 1.864-7.042-7.277c-0.593-0.613-1.186-1.068-1.778-1.367-0.583-0.299-1.175-0.4-1.775-0.304-0.59 0.096-1.181 0.431-1.774 1.005v0c-0.564 0.545-0.942 1.135-1.135 1.768-0.189 0.629-0.223 1.26-0.104 1.894 0.115 0.629 0.361 1.24 0.737 1.834v0l-1.617-1.082 0.235-0.228c-0.361-0.628-0.596-1.302-0.705-2.022-0.118-0.72-0.044-1.462 0.225-2.224 0.258-0.762 0.77-1.514 1.534-2.254v0c0.862-0.835 1.724-1.336 2.586-1.505 0.861-0.169 1.732-0.044 2.612 0.376 0.876 0.415 1.766 1.09 2.672 2.025v0zM230.722 245.48l-1.933 1.87-11.252-11.627 1.933-1.871 2.608 2.871 0.209 0.04zM237.977 238.46l-1.918 1.856-7.042-7.277c-0.593-0.613-1.186-1.068-1.779-1.367-0.588-0.294-1.177-0.398-1.767-0.311-0.585 0.092-1.176 0.427-1.774 1.005v0c-0.568 0.55-0.949 1.142-1.143 1.775-0.189 0.629-0.221 1.262-0.096 1.901 0.129 0.643 0.384 1.265 0.765 1.864v0l-1.683-1.033 0.426-0.412c-0.39-0.638-0.646-1.315-0.769-2.031-0.123-0.716-0.058-1.448 0.195-2.196 0.253-0.748 0.743-1.473 1.468-2.174v0c1.068-1.034 2.154-1.544 3.258-1.531 1.094 0.013 2.23 0.485 3.406 1.416v0c0.191 0.119 0.384 0.264 0.578 0.436 0.2 0.167 0.387 0.342 0.563 0.523v0z" fill="white"></path><path d="M254.148 219.727v0c-1.411 2.017-2.969 3.19-4.673 3.521-1.704 0.33-3.475-0.148-5.314-1.434v0l-2.363-1.653c-1.866-1.306-2.969-2.785-3.31-4.439-0.347-1.657 0.121-3.402 1.403-5.235v0c0.86-1.229 1.807-2.094 2.84-2.594 1.037-0.506 2.121-0.676 3.251-0.509 1.133 0.177 2.283 0.674 3.451 1.491v0l0.495 0.346c0.285 0.199 0.565 0.412 0.839 0.638 0.275 0.226 0.538 0.456 0.79 0.69v0l-1.413 2.02c-0.418-0.318-0.821-0.616-1.208-0.896-0.387-0.279-0.743-0.532-1.067-0.759v0c-0.804-0.563-1.576-0.911-2.314-1.045-0.742-0.128-1.437-0.04-2.083 0.265-0.656 0.307-1.251 0.843-1.787 1.608v0c-0.801 1.145-1.072 2.233-0.812 3.265 0.266 1.035 1.014 1.983 2.243 2.842v0l1.265 0.886 0.28 0.171 1.265 0.885c0.553 0.387 1.107 0.654 1.662 0.801 0.56 0.151 1.121 0.164 1.682 0.041 0.57-0.125 1.127-0.397 1.67-0.816 0.547-0.425 1.08-1.008 1.6-1.752v0c0.602-0.86 1.049-1.742 1.339-2.645 0.293-0.894 0.472-1.804 0.539-2.732v0l1.761 1.532c-0.046 0.85-0.229 1.742-0.548 2.675-0.32 0.933-0.814 1.877-1.483 2.832zM251.235 211.01l-6.591 9.419-1.651-1.155 6.591-9.419z" fill="white"></path><path d="M266.792 196.256l-1.208 2.404-8.993-4.517c-0.78-0.392-1.502-0.625-2.167-0.7-0.674-0.071-1.287 0.056-1.839 0.381-0.553 0.325-1.037 0.902-1.454 1.731v0c-0.383 0.762-0.57 1.492-0.562 2.19 0.005 0.704 0.165 1.35 0.482 1.936 0.319 0.595 0.754 1.119 1.305 1.571v0l-1.925-0.429 0.262-0.521c-0.572-0.486-1.027-1.062-1.365-1.727-0.337-0.665-0.501-1.411-0.49-2.237 0.011-0.826 0.259-1.724 0.746-2.693v0c0.575-1.146 1.26-1.961 2.054-2.448 0.788-0.489 1.671-0.691 2.65-0.603 0.976 0.078 2.058 0.415 3.245 1.012v0zM261.935 205.926l-1.208 2.404-14.459-7.263 1.208-2.404 3.408 1.85 0.193-0.041z" fill="white"></path><path d="M271.488 183.692v0c-0.389 1.186-0.881 2.083-1.476 2.691-0.592 0.602-1.306 0.949-2.139 1.042-0.825 0.088-1.779-0.046-2.861-0.401v0l-9.708-3.187 0.826-2.517 9.407 3.088c1.004 0.33 1.823 0.34 2.455 0.031 0.63-0.303 1.125-1.001 1.485-2.096v0c0.202-0.615 0.33-1.234 0.383-1.855 0.051-0.615 0.033-1.216-0.054-1.805v0l2.107 0.961c0.091 0.575 0.103 1.218 0.034 1.927-0.074 0.708-0.228 1.414-0.459 2.121zM259.258 175.661l-3.634 11.069-2.04-0.67 3.71-11.302zM255.47 181.167l-0.801 2.439-4.321-1.397 0.512-2.674z" fill="white"></path></g></svg></g></svg></g></svg></g></svg></g><defs><mask></mask></defs></svg><rect width="280" height="280" fill="black" stroke="none" visibility="hidden"></rect></g></mask><linearGradient x1="0" x2="1" y1="0.548" y2="0.55" id="9dd23de5-9a52-4ec1-adff-94db0edf7e9e"><stop stop-color="#ff6cab" offset="0"></stop><stop stop-color="#7366ff" offset="1"></stop></linearGradient><rect width="280" height="280" fill="url(#9dd23de5-9a52-4ec1-adff-94db0edf7e9e)" mask="url(#4966f6d5-a488-48ab-ad20-dac580ccdd01)" data-fill-palette-color="primary"></rect><mask id="12abf90b-52e0-4590-aaf8-71153dd1ef2b"><g id="SvgjsG1272"><svg viewBox="0 0 280 280" height="280" width="280"><g><svg viewBox="0 0 280 280" height="280" width="280"><g><svg viewBox="0 0 280 280" height="280" width="280"><g id="SvgjsG1271"><svg viewBox="0 0 280 280" height="280" width="280" id="SvgjsSvg1270"><g><svg viewBox="0 0 280 280" height="280" width="280"><g transform="matrix(1,0,0,1,57.50420886156945,57.50420886156945)"><svg viewBox="0 0 164.9915822768611 164.9915822768611" height="164.9915822768611" width="164.9915822768611"><g id="SvgjsG1269"><circle r="82" cx="82.49579113843055" cy="82.49579113843055" fill="white"></circle><svg xmlns="http://www.w3.org/2000/svg" xmlns:xlink="http://www.w3.org/1999/xlink" version="1.1" x="24.748737341529164" y="24.74873734152917" viewBox="25.319013706630393 31.071 49.36147007722591 37.85900000000001" enable-background="new 0 0 100 100" xml:space="preserve" height="115.49410759380275" width="115.49410759380275" class="icon-jxe-0" data-fill-palette-color="quaternary" id="SvgjsSvg1268"><path d="M73.789 58.976A6.66 6.66 0 0 0 68.038 55.658C67.051 55.658 66.08 55.893 65.189 56.319L56.476 45.403A8.6 8.6 0 0 0 58.337 41.937 8.57 8.57 0 0 0 57.474 35.387 8.66 8.66 0 0 0 49.994 31.071C48.487 31.071 46.998 31.471 45.687 32.229A8.57 8.57 0 0 0 41.664 37.469 8.57 8.57 0 0 0 42.525 44.018C42.813 44.518 43.162 44.969 43.537 45.393L34.81 56.319A6.6 6.6 0 0 0 31.962 55.659 6.66 6.66 0 0 0 26.21 58.977 6.6 6.6 0 0 0 25.548 64.012 6.58 6.58 0 0 0 28.638 68.039 6.64 6.64 0 0 0 31.952 68.93 6.66 6.66 0 0 0 37.704 65.612 6.6 6.6 0 0 0 38.366 60.577 6.6 6.6 0 0 0 37.162 58.181L45.876 47.27A8.7 8.7 0 0 0 48.499 48.186V55.841A6.7 6.7 0 0 0 46.682 56.548 6.643 6.643 0 0 0 44.253 65.612 6.66 6.66 0 0 0 50.004 68.929 6.64 6.64 0 0 0 53.317 68.039C54.851 67.153 55.949 65.723 56.408 64.011S56.632 60.511 55.745 58.976A6.65 6.65 0 0 0 51.499 55.843V48.188A8.7 8.7 0 0 0 54.128 47.27L62.84 58.184C61.209 60.254 60.9 63.193 62.296 65.612A6.66 6.66 0 0 0 68.047 68.929 6.64 6.64 0 0 0 71.36 68.039C72.894 67.153 73.992 65.723 74.451 64.011S74.676 60.511 73.789 58.976" fill="black"></path></svg></g></svg></g><g id="SvgjsG1267"></g><g id="SvgjsG1266"></g></svg></g></svg></g></svg></g></svg></g><defs><mask></mask></defs><mask><g id="SvgjsG1265"><svg viewBox="0 0 280 280" height="280" width="280"><g><svg viewBox="0 0 280 280" height="280" width="280"><g><svg viewBox="0 0 280 280" height="280" width="280"><g id="SvgjsG1264"><svg viewBox="0 0 280 280" height="280" width="280" id="SvgjsSvg1263"><g><svg viewBox="0 0 280 280" height="280" width="280"><g transform="matrix(1,0,0,1,57.50420886156945,57.50420886156945)"><svg viewBox="0 0 164.9915822768611 164.9915822768611" height="164.9915822768611" width="164.9915822768611"><g id="SvgjsG1262"><circle r="82" cx="82.49579113843055" cy="82.49579113843055" fill="black"></circle><svg xmlns="http://www.w3.org/2000/svg" xmlns:xlink="http://www.w3.org/1999/xlink" version="1.1" x="24.748737341529164" y="24.74873734152917" viewBox="25.319013706630393 31.071 49.36147007722591 37.85900000000001" enable-background="new 0 0 100 100" xml:space="preserve" height="115.49410759380275" width="115.49410759380275" class="icon-jxe-0" data-fill-palette-color="quaternary" id="SvgjsSvg1261"><path d="M73.789 58.976A6.66 6.66 0 0 0 68.038 55.658C67.051 55.658 66.08 55.893 65.189 56.319L56.476 45.403A8.6 8.6 0 0 0 58.337 41.937 8.57 8.57 0 0 0 57.474 35.387 8.66 8.66 0 0 0 49.994 31.071C48.487 31.071 46.998 31.471 45.687 32.229A8.57 8.57 0 0 0 41.664 37.469 8.57 8.57 0 0 0 42.525 44.018C42.813 44.518 43.162 44.969 43.537 45.393L34.81 56.319A6.6 6.6 0 0 0 31.962 55.659 6.66 6.66 0 0 0 26.21 58.977 6.6 6.6 0 0 0 25.548 64.012 6.58 6.58 0 0 0 28.638 68.039 6.64 6.64 0 0 0 31.952 68.93 6.66 6.66 0 0 0 37.704 65.612 6.6 6.6 0 0 0 38.366 60.577 6.6 6.6 0 0 0 37.162 58.181L45.876 47.27A8.7 8.7 0 0 0 48.499 48.186V55.841A6.7 6.7 0 0 0 46.682 56.548 6.643 6.643 0 0 0 44.253 65.612 6.66 6.66 0 0 0 50.004 68.929 6.64 6.64 0 0 0 53.317 68.039C54.851 67.153 55.949 65.723 56.408 64.011S56.632 60.511 55.745 58.976A6.65 6.65 0 0 0 51.499 55.843V48.188A8.7 8.7 0 0 0 54.128 47.27L62.84 58.184C61.209 60.254 60.9 63.193 62.296 65.612A6.66 6.66 0 0 0 68.047 68.929 6.64 6.64 0 0 0 71.36 68.039C72.894 67.153 73.992 65.723 74.451 64.011S74.676 60.511 73.789 58.976" fill="black"></path></svg></g></svg></g><g id="SvgjsG1260"><path d="M26.871 102.011v0c-0.799 2.494-2.096 4.14-3.892 4.939-1.802 0.797-3.992 0.783-6.57-0.043v0l-4.782-1.532c-2.578-0.826-4.366-2.083-5.365-3.77-0.999-1.688-1.1-3.775-0.303-6.262v0c0.256-0.799 0.564-1.502 0.923-2.11 0.359-0.608 0.736-1.135 1.13-1.582 0.398-0.438 0.781-0.795 1.149-1.071v0l2.497 0.553c-0.641 0.482-1.261 1.085-1.858 1.81-0.6 0.732-1.08 1.662-1.443 2.793v0c-0.543 1.695-0.45 3.135 0.28 4.321 0.73 1.186 2.02 2.076 3.871 2.668v0l4.656 1.492c1.844 0.591 3.413 0.61 4.707 0.058 1.3-0.55 2.228-1.692 2.784-3.425v0c0.358-1.117 0.512-2.156 0.461-3.117-0.057-0.963-0.221-1.836-0.493-2.618v0l2.425 1.013c0.137 0.445 0.244 0.97 0.322 1.575 0.072 0.603 0.074 1.266 0.008 1.989-0.076 0.728-0.244 1.5-0.507 2.319z" fill="black"></path><path d="M33.319 86.978v0c-1.024 2.088-2.362 3.391-4.013 3.91-1.655 0.525-3.541 0.268-5.66-0.771v0l-2.213-1.085c-2.106-1.033-3.455-2.363-4.047-3.99-0.589-1.633-0.375-3.487 0.643-5.562v0c1.021-2.082 2.355-3.386 4.004-3.915 1.649-0.528 3.526-0.276 5.632 0.757v0l2.213 1.086c2.118 1.039 3.476 2.373 4.075 4.003 0.598 1.63 0.387 3.486-0.634 5.567zM31.354 86.014v0c0.633-1.292 0.731-2.459 0.293-3.502-0.438-1.043-1.376-1.917-2.815-2.622v0l-2.489-1.22c-1.426-0.7-2.683-0.902-3.769-0.607-1.086 0.295-1.946 1.088-2.58 2.381v0c-0.627 1.28-0.727 2.442-0.298 3.487 0.426 1.052 1.352 1.927 2.779 2.627v0l2.488 1.221c1.439 0.706 2.707 0.906 3.806 0.602 1.095-0.298 1.957-1.087 2.585-2.367z" fill="black"></path><path d="M46.374 65.377l-1.529 2.213-8.282-5.717c-0.718-0.496-1.401-0.827-2.049-0.992-0.657-0.164-1.282-0.123-1.875 0.122-0.592 0.246-1.152 0.75-1.678 1.514v0c-0.484 0.701-0.771 1.398-0.86 2.091-0.093 0.698-0.023 1.36 0.209 1.984 0.234 0.634 0.592 1.213 1.076 1.736v0l-1.848-0.691 0.332-0.479c-0.5-0.56-0.871-1.193-1.113-1.899-0.242-0.706-0.301-1.467-0.176-2.284 0.125-0.817 0.495-1.672 1.111-2.564v0c0.728-1.055 1.519-1.768 2.373-2.141 0.848-0.376 1.75-0.453 2.707-0.231 0.955 0.212 1.98 0.696 3.075 1.452v0zM40.226 74.282l-1.528 2.214-13.316-9.193 1.528-2.213 3.12 2.303 0.196-0.014z" fill="black"></path><path d="M54.111 57.536v0c-0.853 0.911-1.677 1.517-2.473 1.818-0.791 0.296-1.584 0.31-2.379 0.042-0.786-0.268-1.594-0.792-2.425-1.57v0l-7.459-6.983 1.811-1.934 7.227 6.767c0.771 0.722 1.509 1.077 2.213 1.063 0.699-0.009 1.443-0.433 2.23-1.274v0c0.443-0.473 0.819-0.98 1.13-1.521 0.306-0.536 0.543-1.089 0.712-1.659v0l1.505 1.76c-0.16 0.56-0.421 1.147-0.781 1.762-0.366 0.61-0.803 1.187-1.311 1.729zM46.408 45.097l-7.962 8.504-1.568-1.468 8.13-8.683zM40.651 48.492l-1.754 1.874-3.329-3.089 1.591-2.208z" fill="black"></path><path d="M69.318 43.607l-2.05 1.709-2.421-3.095-0.347-0.256-3.302-3.96-0.586-0.735c-0.843-1.011-1.722-1.543-2.637-1.597-0.919-0.059-1.937 0.376-3.052 1.306v0c-0.89 0.742-1.6 1.552-2.13 2.429-0.534 0.871-0.947 1.718-1.24 2.538v0l-1.272-1.909c0.159-0.47 0.382-0.984 0.67-1.544 0.284-0.565 0.661-1.15 1.133-1.757 0.466-0.602 1.042-1.188 1.728-1.76v0c0.896-0.747 1.744-1.272 2.546-1.578 0.802-0.305 1.567-0.415 2.296-0.329 0.723 0.09 1.414 0.348 2.072 0.776 0.658 0.428 1.287 1 1.885 1.718v0zM63.217 49.147v0c-1.231 1.026-2.425 1.516-3.583 1.469-1.157-0.056-2.198-0.64-3.123-1.75v0l-0.308-0.37c-0.956-1.147-1.315-2.295-1.075-3.445 0.235-1.155 1.034-2.487 2.395-3.995v0l3.464-3.847 1.376 1.41-3.342 3.706c-0.84 0.931-1.326 1.732-1.46 2.402-0.133 0.661 0.068 1.311 0.6 1.95v0l0.171 0.204c0.541 0.649 1.16 0.981 1.856 0.996 0.686 0.014 1.433-0.316 2.239-0.988v0c0.717-0.598 1.228-1.232 1.53-1.902 0.303-0.67 0.439-1.342 0.408-2.018-0.035-0.681-0.209-1.321-0.523-1.921v0l1.488 1.13-0.401 0.334c0.339 0.641 0.538 1.332 0.597 2.073 0.064 0.737-0.077 1.494-0.424 2.271-0.351 0.772-0.979 1.536-1.885 2.291z" fill="black"></path><path d="M79.152 37.8v0c-1.969 1.224-3.765 1.603-5.389 1.135-1.624-0.468-3.042-1.677-4.256-3.629v0l-1.334-2.145c-1.221-1.963-1.675-3.772-1.363-5.427 0.312-1.655 1.446-3.091 3.403-4.309v0c0.585-0.364 1.15-0.643 1.695-0.837 0.543-0.185 1.06-0.31 1.55-0.374 0.484-0.06 0.917-0.081 1.299-0.061v0l1.437 1.865c-0.655-0.059-1.357-0.019-2.107 0.118-0.752 0.146-1.536 0.474-2.353 0.981v0c-1.314 0.817-2.068 1.788-2.26 2.911-0.189 1.129 0.149 2.389 1.013 3.779v0l1.258 2.023c0.846 1.361 1.819 2.209 2.92 2.545 1.096 0.33 2.302 0.086 3.616-0.732v0c0.845-0.526 1.501-1.098 1.967-1.717 0.47-0.613 0.84-1.237 1.112-1.872v0l1.04 2.136c-0.235 0.539-0.614 1.137-1.138 1.792-0.515 0.657-1.218 1.263-2.11 1.818z" fill="black"></path><path d="M92.717 30.844v0c-1.136 0.515-2.13 0.76-2.98 0.734-0.844-0.029-1.582-0.319-2.215-0.871-0.623-0.548-1.17-1.341-1.64-2.379v0l-4.22-9.305 2.412-1.094 4.09 9.016c0.437 0.963 0.983 1.572 1.638 1.829 0.649 0.26 1.499 0.151 2.548-0.324v0c0.59-0.268 1.132-0.592 1.625-0.973 0.487-0.378 0.918-0.798 1.293-1.26v0l0.717 2.201c-0.362 0.456-0.827 0.899-1.396 1.329-0.571 0.424-1.196 0.789-1.872 1.097zM90.357 16.404l-10.609 4.812-0.888-1.956 10.833-4.913zM83.739 17.339l-2.338 1.061-1.894-4.128 2.315-1.432z" fill="black"></path><path d="M113.042 23.945l-2.624 0.493-3.111-20.968 4.192-0.787 7.759 14.123 0.221-0.041 2.123-15.977 4.202-0.788 4.699 20.67-2.623 0.492-1.94-8.731-2.001-9.167-0.301 0.056-2.219 16.577-2.814 0.528-8.076-14.646-0.301 0.057 1.441 9.293z" fill="black"></path><path d="M147.833 20.618l-2.67 0.012 0.105-3.928-0.104-0.419-0.024-5.154 0.016-0.941c-0.006-1.316-0.345-2.286-1.016-2.911-0.671-0.631-1.733-0.943-3.185-0.936v0c-1.159 0.005-2.222 0.177-3.189 0.516-0.967 0.332-1.824 0.721-2.572 1.167v0l0.235-2.282c0.422-0.261 0.922-0.516 1.5-0.763 0.578-0.255 1.242-0.466 1.992-0.634 0.742-0.167 1.56-0.253 2.453-0.256v0c1.166-0.005 2.155 0.13 2.968 0.405 0.813 0.276 1.473 0.678 1.98 1.208 0.5 0.53 0.868 1.169 1.103 1.918 0.235 0.749 0.355 1.591 0.359 2.525v0zM139.601 21.004v0c-1.602 0.007-2.835-0.376-3.698-1.149-0.856-0.78-1.287-1.893-1.293-3.339v0l-0.003-0.48c-0.007-1.493 0.448-2.607 1.366-3.341 0.917-0.741 2.381-1.259 4.391-1.555v0l5.12-0.76 0.163 1.963-4.937 0.729c-1.24 0.183-2.125 0.491-2.655 0.923-0.523 0.425-0.783 1.054-0.779 1.885v0l0.001 0.266c0.004 0.846 0.269 1.495 0.797 1.95 0.52 0.448 1.305 0.669 2.355 0.664v0c0.934-0.004 1.731-0.168 2.392-0.492 0.66-0.324 1.193-0.756 1.599-1.296 0.407-0.547 0.68-1.152 0.82-1.814v0l0.428 1.819-0.521 0.002c-0.147 0.71-0.433 1.369-0.861 1.978-0.42 0.609-1.011 1.102-1.773 1.481-0.762 0.372-1.733 0.56-2.912 0.566z" fill="black"></path><path d="M166.328 23.109l-2.663-0.377 1.411-9.965c0.122-0.864 0.113-1.623-0.029-2.277-0.147-0.661-0.463-1.202-0.948-1.622-0.485-0.42-1.186-0.695-2.104-0.825v0c-0.844-0.12-1.596-0.064-2.255 0.166-0.666 0.229-1.226 0.587-1.68 1.074-0.462 0.492-0.82 1.072-1.073 1.739v0l-0.208-1.961 0.577 0.081c0.278-0.698 0.678-1.312 1.202-1.844 0.523-0.532 1.178-0.925 1.964-1.178 0.787-0.254 1.717-0.304 2.79-0.152v0c1.269 0.18 2.261 0.568 2.975 1.165 0.715 0.59 1.188 1.363 1.418 2.318 0.237 0.95 0.263 2.083 0.076 3.399v0zM155.614 21.591l-2.664-0.377 2.27-16.021 2.663 0.377-0.665 3.821 0.1 0.169z" fill="black"></path><path d="M183.001 28.099l-2.555-0.774 1.255-3.723 0.024-0.431 1.494-4.934 0.292-0.895c0.381-1.26 0.343-2.286-0.115-3.08-0.456-0.801-1.379-1.411-2.769-1.832v0c-1.109-0.336-2.176-0.484-3.199-0.445-1.022 0.033-1.955 0.153-2.802 0.36v0l0.896-2.112c0.48-0.126 1.032-0.222 1.658-0.289 0.628-0.074 1.324-0.08 2.09-0.019 0.759 0.059 1.566 0.217 2.42 0.476v0c1.116 0.338 2.022 0.758 2.717 1.261 0.696 0.503 1.208 1.082 1.537 1.736 0.322 0.653 0.486 1.372 0.491 2.158 0.005 0.785-0.128 1.625-0.399 2.519v0zM175.02 26.046v0c-1.534-0.464-2.599-1.193-3.196-2.185-0.589-0.997-0.673-2.188-0.255-3.572v0l0.139-0.46c0.433-1.429 1.195-2.36 2.288-2.791 1.094-0.438 2.646-0.503 4.654-0.194v0l5.118 0.779-0.422 1.924-4.933-0.755c-1.239-0.19-2.175-0.156-2.809 0.1-0.625 0.253-1.058 0.777-1.299 1.573v0l-0.077 0.255c-0.245 0.809-0.182 1.509 0.188 2.098 0.366 0.581 1.051 1.023 2.056 1.327v0c0.894 0.271 1.704 0.348 2.43 0.234 0.726-0.115 1.363-0.371 1.91-0.768 0.55-0.404 0.989-0.901 1.317-1.493v0l-0.126 1.864-0.499-0.151c-0.349 0.635-0.817 1.181-1.404 1.637-0.58 0.458-1.29 0.756-2.13 0.894-0.838 0.131-1.821 0.026-2.95-0.316z" fill="black"></path><path d="M195.391 28.515v0c-1.986-0.953-3.299-2.117-3.94-3.491-0.647-1.377-0.583-2.874 0.193-4.491v0l0.177-0.369c0.484-1.008 1.112-1.788 1.883-2.341 0.775-0.543 1.716-0.81 2.824-0.8 1.113 0.013 2.41 0.351 3.891 1.017v0l7.556 3.332-0.916 1.908-4.318-2.254-0.067 0.093c0.621 0.472 1.068 0.982 1.342 1.529 0.274 0.548 0.396 1.128 0.367 1.741-0.027 0.607-0.204 1.252-0.532 1.935v0l-0.155 0.323c-0.744 1.549-1.817 2.486-3.221 2.81-1.41 0.322-3.105 0.007-5.084-0.942zM191.431 36.507v0l0.341 0.163c0.897 0.431 1.698 0.732 2.403 0.904 0.71 0.175 1.307 0.2 1.789 0.076 0.489-0.121 0.849-0.421 1.079-0.9v0l0.027-0.055c0.268-0.559 0.274-1.083 0.016-1.57-0.264-0.49-0.864-1.012-1.801-1.567v0l-3.94-2.357 0.696 0.3c-0.592-0.186-1.142-0.291-1.652-0.316-0.51-0.025-0.955 0.052-1.337 0.232-0.381 0.18-0.677 0.488-0.886 0.924v0l-0.014 0.028c-0.245 0.51-0.266 1.003-0.063 1.479 0.194 0.479 0.579 0.936 1.157 1.372 0.577 0.436 1.306 0.865 2.185 1.287zM190.801 38.575l-0.433-0.208c-1.316-0.631-2.395-1.289-3.239-1.974-0.847-0.679-1.41-1.395-1.691-2.15-0.281-0.755-0.217-1.556 0.19-2.405v0l0.026-0.055c0.286-0.596 0.667-1.026 1.142-1.29 0.481-0.261 1.015-0.39 1.604-0.388 0.598-0.001 1.214 0.102 1.848 0.309v0l0.022-0.092c-0.744-0.531-1.229-1.063-1.458-1.596-0.222-0.53-0.202-1.069 0.061-1.616v0l0.009-0.018c0.18-0.375 0.421-0.656 0.722-0.844 0.308-0.185 0.676-0.273 1.103-0.265 0.433 0.011 0.932 0.13 1.497 0.355v0l0.142-0.295 2.448 2.038-1.13-0.577c-0.679-0.318-1.185-0.463-1.517-0.433-0.332 0.03-0.573 0.201-0.723 0.515v0l-0.005 0.009c-0.159 0.332-0.094 0.669 0.195 1.013 0.286 0.349 0.848 0.785 1.687 1.308v0l3.368 2.059c1.466 0.9 2.416 1.814 2.848 2.74 0.427 0.923 0.369 1.95-0.174 3.082v0l-0.035 0.074c-0.437 0.91-1.064 1.524-1.883 1.842-0.812 0.321-1.777 0.376-2.893 0.165-1.11-0.208-2.354-0.642-3.731-1.303zM196.227 26.703v0c0.836 0.401 1.588 0.615 2.256 0.641 0.671 0.02 1.266-0.149 1.785-0.505 0.522-0.362 0.954-0.9 1.296-1.613v0l0.173-0.359c0.336-0.701 0.486-1.359 0.448-1.975-0.041-0.625-0.274-1.194-0.7-1.708-0.426-0.515-1.054-0.971-1.884-1.37v0l-0.092-0.044c-0.891-0.428-1.685-0.642-2.38-0.643-0.698 0.005-1.292 0.193-1.78 0.564-0.488 0.371-0.89 0.885-1.205 1.543v0l-0.168 0.35c-0.342 0.713-0.49 1.383-0.444 2.011 0.05 0.621 0.297 1.194 0.742 1.717 0.454 0.52 1.105 0.984 1.953 1.391z" fill="black"></path><path d="M208.975 42.384v0c-2.049-1.364-3.259-2.894-3.629-4.59-0.37-1.696 0.066-3.478 1.309-5.346v0l1.598-2.401c1.262-1.896 2.715-3.034 4.36-3.413 1.649-0.385 3.404 0.042 5.266 1.28v0c1.249 0.831 2.136 1.757 2.66 2.778 0.53 1.025 0.725 2.104 0.584 3.239-0.15 1.137-0.62 2.298-1.409 3.485v0l-0.335 0.502c-0.193 0.29-0.399 0.574-0.617 0.855-0.219 0.28-0.443 0.549-0.672 0.806v0l-2.052-1.366c0.308-0.426 0.597-0.835 0.867-1.229 0.27-0.394 0.515-0.755 0.734-1.084v0c0.544-0.817 0.874-1.597 0.991-2.338 0.111-0.745 0.006-1.437-0.314-2.076-0.322-0.648-0.872-1.231-1.65-1.749v0c-1.164-0.774-2.258-1.019-3.282-0.735-1.029 0.29-1.958 1.06-2.79 2.309v0l-0.855 1.285-0.165 0.284-0.855 1.286c-0.374 0.562-0.628 1.122-0.762 1.68-0.138 0.564-0.138 1.124-0.001 1.682 0.139 0.567 0.424 1.117 0.855 1.65 0.437 0.537 1.033 1.056 1.788 1.559v0c0.874 0.582 1.766 1.007 2.676 1.277 0.9 0.272 1.815 0.43 2.744 0.474v0l-1.491 1.797c-0.851-0.026-1.747-0.188-2.687-0.485-0.94-0.298-1.896-0.77-2.866-1.416zM217.622 39.267l-9.571-6.369 1.116-1.677 9.571 6.369z" fill="black"></path><path d="M233.987 64.323l-1.926-1.863 7.042-7.277c0.593-0.613 1.029-1.22 1.308-1.822 0.28-0.593 0.361-1.187 0.246-1.784-0.116-0.586-0.47-1.166-1.063-1.74v0c-0.564-0.545-1.165-0.904-1.805-1.077-0.634-0.168-1.266-0.182-1.895-0.041-0.625 0.136-1.228 0.401-1.81 0.796v0l1.029-1.651 0.235 0.227c0.616-0.381 1.282-0.638 1.998-0.77 0.716-0.142 1.46-0.091 2.231 0.151 0.771 0.233 1.538 0.72 2.302 1.46v0c0.862 0.835 1.392 1.679 1.589 2.534 0.197 0.855 0.101 1.729-0.289 2.623-0.386 0.889-1.031 1.801-1.937 2.737v0zM219.471 50.276l-1.933-1.871 11.252-11.627 1.933 1.87-2.784 2.701-0.033 0.21zM226.725 57.296l-1.918-1.856 7.041-7.277c0.593-0.613 1.029-1.22 1.309-1.822 0.275-0.598 0.359-1.19 0.253-1.777-0.111-0.582-0.465-1.162-1.063-1.74v0c-0.568-0.55-1.172-0.911-1.812-1.084-0.634-0.168-1.269-0.179-1.903-0.034-0.639 0.15-1.252 0.426-1.838 0.826v0l0.977-1.716 0.426 0.413c0.625-0.41 1.293-0.689 2.005-0.836 0.711-0.147 1.445-0.106 2.201 0.123 0.756 0.229 1.497 0.694 2.222 1.396v0c1.068 1.034 1.614 2.102 1.636 3.206 0.023 1.094-0.412 2.244-1.303 3.45v0c-0.113 0.195-0.252 0.392-0.417 0.593-0.161 0.205-0.329 0.398-0.504 0.579v0z" fill="black"></path><path d="M240.288 74.1v0c-1.411-2.017-1.98-3.882-1.707-5.597 0.273-1.714 1.329-3.215 3.167-4.5v0l2.363-1.654c1.866-1.306 3.634-1.836 5.305-1.59 1.676 0.242 3.155 1.279 4.437 3.112v0c0.86 1.229 1.348 2.414 1.465 3.556 0.12 1.147-0.092 2.224-0.637 3.23-0.554 1.004-1.415 1.914-2.583 2.731v0l-0.494 0.346c-0.285 0.199-0.58 0.39-0.887 0.57-0.306 0.181-0.613 0.35-0.919 0.506v0l-1.413-2.019c0.442-0.284 0.86-0.56 1.255-0.829 0.395-0.268 0.754-0.515 1.079-0.742v0c0.804-0.563 1.396-1.168 1.775-1.816 0.375-0.654 0.53-1.336 0.464-2.048-0.064-0.721-0.363-1.464-0.899-2.23v0c-0.801-1.145-1.731-1.772-2.789-1.881-1.064-0.105-2.21 0.273-3.439 1.134v0l-1.265 0.885-0.256 0.204-1.266 0.886c-0.553 0.387-0.994 0.816-1.321 1.287-0.334 0.475-0.538 0.997-0.615 1.566-0.078 0.579-0.013 1.195 0.195 1.848 0.212 0.659 0.577 1.36 1.098 2.103v0c0.602 0.86 1.278 1.582 2.026 2.165 0.74 0.581 1.534 1.062 2.382 1.442v0l-2.043 1.13c-0.783-0.334-1.558-0.811-2.325-1.432-0.767-0.62-1.485-1.408-2.153-2.363zM249.476 74.349l-6.592-9.419 1.651-1.155 6.592 9.419z" fill="black"></path><path d="M252.333 95.135l-1.207-2.404 8.993-4.518c0.78-0.392 1.398-0.832 1.855-1.32 0.46-0.498 0.724-1.066 0.793-1.704 0.069-0.637-0.105-1.371-0.521-2.199v0c-0.383-0.762-0.856-1.348-1.421-1.758-0.568-0.417-1.181-0.673-1.841-0.77-0.668-0.099-1.348-0.063-2.039 0.109v0l1.493-1.288 0.262 0.521c0.732-0.169 1.465-0.19 2.2-0.063 0.735 0.127 1.431 0.441 2.087 0.943 0.657 0.502 1.228 1.237 1.715 2.206v0c0.575 1.146 0.821 2.182 0.738 3.109-0.078 0.924-0.443 1.753-1.098 2.485-0.645 0.736-1.562 1.403-2.75 2v0zM247.476 85.465l-1.207-2.404 14.459-7.263 1.207 2.404-3.519 1.63-0.082 0.179z" fill="black"></path><path d="M255.494 105.687v0c-0.389-1.186-0.525-2.2-0.407-3.042 0.12-0.836 0.489-1.538 1.106-2.107 0.613-0.56 1.46-1.018 2.542-1.373v0l9.708-3.187 0.826 2.517-9.407 3.088c-1.004 0.33-1.669 0.806-1.995 1.431-0.328 0.617-0.313 1.473 0.046 2.568v0c0.202 0.615 0.466 1.189 0.791 1.721 0.323 0.525 0.694 0.999 1.113 1.422v0l-2.266 0.475c-0.414-0.409-0.804-0.92-1.17-1.532-0.359-0.614-0.655-1.274-0.887-1.981zM270.104 104.906l-3.634-11.068 2.04-0.67 3.711 11.301zM269.891 98.226l-0.801-2.439 4.309-1.436 1.172 2.457z" fill="black"></path><path d="M9.195 142.064c0-1.365 1.106-2.471 2.471-2.471 1.365 0 2.471 1.106 2.472 2.471 0 1.365-1.106 2.471-2.472 2.472-1.365 0-2.471-1.106-2.471-2.472z" fill="black"></path><path d="M266.944 142.064c0-1.365 1.106-2.471 2.471-2.471 1.365 0 2.471 1.106 2.472 2.471 0 1.365-1.106 2.471-2.472 2.472-1.365 0-2.471-1.106-2.471-2.472z" fill="black"></path></g><g id="SvgjsG1259"><path d="M10.742 187.285v0c-0.799-2.494-0.7-4.587 0.296-6.281 1.003-1.696 2.794-2.957 5.372-3.783v0l4.782-1.532c2.578-0.826 4.764-0.842 6.558-0.05 1.793 0.793 3.089 2.433 3.885 4.92v0c0.256 0.799 0.414 1.55 0.475 2.254 0.061 0.704 0.061 1.352 0 1.944-0.069 0.588-0.174 1.101-0.313 1.539v0l-2.353 1.001c0.242-0.765 0.395-1.616 0.46-2.553 0.063-0.944-0.087-1.981-0.449-3.111v0c-0.543-1.695-1.456-2.813-2.739-3.354-1.283-0.541-2.85-0.515-4.701 0.078v0l-4.656 1.492c-1.844 0.591-3.132 1.487-3.864 2.688-0.739 1.203-0.83 2.672-0.275 4.405v0c0.358 1.117 0.836 2.052 1.436 2.805 0.606 0.751 1.247 1.366 1.922 1.844v0l-2.562 0.584c-0.37-0.282-0.762-0.647-1.177-1.094-0.409-0.449-0.796-0.987-1.162-1.614-0.361-0.636-0.673-1.363-0.935-2.182z" fill="black"></path><path d="M18.039 204.644v0c-1.024-2.088-1.235-3.943-0.634-5.567 0.598-1.63 1.956-2.964 4.074-4.003v0l2.213-1.086c2.106-1.033 3.983-1.285 5.632-0.757 1.652 0.534 2.986 1.839 4.005 3.915v0c1.021 2.082 1.235 3.936 0.643 5.563-0.592 1.627-1.941 2.957-4.047 3.989v0l-2.213 1.085c-2.118 1.039-4.005 1.296-5.66 0.771-1.655-0.525-2.993-1.828-4.013-3.91zM20.004 203.68v0c0.633 1.292 1.496 2.084 2.589 2.376 1.093 0.292 2.358 0.085 3.797-0.62v0l2.488-1.221c1.426-0.7 2.356-1.569 2.788-2.608 0.432-1.04 0.331-2.205-0.303-3.497v0c-0.627-1.28-1.486-2.07-2.575-2.372-1.092-0.307-2.352-0.111-3.778 0.589v0l-2.489 1.22c-1.439 0.706-2.374 1.586-2.806 2.641-0.435 1.049-0.339 2.213 0.289 3.492z" fill="black"></path><path d="M33.058 227.944l-1.528-2.214 8.282-5.718c0.718-0.496 1.27-1.017 1.655-1.564 0.386-0.557 0.57-1.155 0.549-1.796-0.02-0.641-0.293-1.343-0.82-2.106v0c-0.484-0.701-1.034-1.216-1.65-1.545-0.62-0.334-1.263-0.503-1.929-0.508-0.675-0.006-1.344 0.124-2.006 0.39v0l1.301-1.482 0.332 0.479c0.701-0.269 1.425-0.391 2.17-0.367 0.746 0.024 1.478 0.239 2.198 0.646 0.72 0.406 1.387 1.056 2.003 1.947v0c0.728 1.055 1.115 2.047 1.16 2.978 0.051 0.926-0.197 1.797-0.743 2.613-0.537 0.818-1.353 1.605-2.447 2.361v0zM26.911 219.038l-1.529-2.213 13.316-9.193 1.528 2.214-3.259 2.101-0.057 0.188z" fill="black"></path><path d="M41.823 238.098v0c-0.853-0.911-1.403-1.773-1.652-2.587-0.244-0.809-0.205-1.601 0.114-2.377 0.319-0.766 0.895-1.538 1.726-2.316v0l7.459-6.984 1.81 1.934-7.227 6.767c-0.771 0.722-1.174 1.435-1.206 2.138-0.037 0.698 0.338 1.468 1.125 2.309v0c0.443 0.473 0.924 0.882 1.443 1.227 0.515 0.34 1.051 0.613 1.609 0.82v0l-1.855 1.386c-0.548-0.197-1.117-0.495-1.707-0.895-0.585-0.405-1.131-0.879-1.639-1.422zM54.741 231.229l-7.963-8.504 1.568-1.468 8.13 8.683zM51.731 225.262l-1.754-1.874 3.301-3.119 2.099 1.733z" fill="black"></path><path d="M58.956 252.949l-2.05-1.71 2.609-2.938 0.19-0.388 3.302-3.959 0.618-0.709c0.843-1.011 1.208-1.971 1.097-2.881-0.107-0.915-0.718-1.837-1.834-2.768v0c-0.89-0.742-1.814-1.295-2.772-1.658-0.953-0.369-1.86-0.623-2.72-0.763v0l1.649-1.595c0.491 0.072 1.037 0.199 1.64 0.382 0.607 0.177 1.25 0.443 1.931 0.798 0.676 0.35 1.356 0.811 2.043 1.383v0c0.896 0.747 1.565 1.487 2.009 2.222 0.444 0.734 0.69 1.467 0.737 2.199 0.042 0.727-0.089 1.453-0.391 2.177-0.302 0.725-0.753 1.446-1.351 2.163v0zM52.41 247.943v0c-1.231-1.026-1.927-2.113-2.089-3.26-0.152-1.148 0.234-2.277 1.16-3.388v0l0.308-0.369c0.956-1.147 2.022-1.706 3.195-1.676 1.179 0.024 2.632 0.57 4.361 1.638v0l4.407 2.716-1.14 1.606-4.246-2.621c-1.067-0.659-1.942-0.993-2.625-1.004-0.674-0.012-1.277 0.302-1.81 0.941v0l-0.171 0.204c-0.541 0.649-0.757 1.318-0.646 2.005 0.11 0.678 0.568 1.352 1.375 2.025v0c0.717 0.598 1.433 0.986 2.146 1.163 0.713 0.177 1.399 0.19 2.058 0.039 0.664-0.157 1.262-0.444 1.796-0.86v0l-0.844 1.667-0.401-0.334c-0.569 0.449-1.213 0.768-1.931 0.959-0.713 0.195-1.483 0.193-2.311-0.009-0.822-0.206-1.687-0.687-2.592-1.442z" fill="black"></path><path d="M70.218 260.694v0c-1.969-1.224-3.102-2.668-3.401-4.331-0.299-1.663 0.159-3.47 1.373-5.422v0l1.334-2.145c1.221-1.963 2.642-3.171 4.265-3.623 1.622-0.452 3.412-0.07 5.369 1.146v0c0.585 0.364 1.085 0.747 1.501 1.151 0.406 0.405 0.747 0.814 1.02 1.225 0.268 0.408 0.478 0.787 0.63 1.138v0l-1.038 2.113c-0.237-0.613-0.583-1.226-1.037-1.838-0.464-0.61-1.104-1.168-1.92-1.676v0c-1.314-0.817-2.518-1.064-3.611-0.74-1.096 0.33-2.077 1.19-2.941 2.579v0l-1.259 2.024c-0.846 1.361-1.177 2.609-0.991 3.744 0.189 1.129 0.941 2.103 2.255 2.92v0c0.845 0.526 1.649 0.861 2.41 1.005 0.758 0.15 1.481 0.207 2.171 0.17v0l-1.456 1.876c-0.588 0.028-1.291-0.048-2.11-0.228-0.817-0.171-1.672-0.534-2.564-1.088z" fill="black"></path><path d="M85.763 268.616v0c-1.136-0.515-1.975-1.102-2.515-1.759-0.534-0.654-0.802-1.401-0.804-2.239 0.002-0.83 0.238-1.764 0.709-2.801v0l4.221-9.306 2.412 1.095-4.089 9.016c-0.437 0.963-0.535 1.775-0.297 2.437 0.232 0.659 0.873 1.227 1.923 1.704v0c0.59 0.268 1.191 0.461 1.802 0.581 0.606 0.117 1.206 0.165 1.8 0.143v0l-1.183 1.99c-0.582 0.028-1.222-0.03-1.92-0.174-0.695-0.151-1.381-0.379-2.059-0.687zM95.072 257.328l-10.609-4.812 0.887-1.956 10.833 4.914zM90.009 252.966l-2.338-1.061 1.857-4.144 2.603 0.799z" fill="black"></path><path d="M110.059 276.086l-2.624-0.493 4.699-20.67 4.192 0.787 2.113 15.974 0.222 0.042 7.768-14.121 4.202 0.788-3.111 20.968-2.624-0.492 1.357-8.841 1.458-9.269-0.302-0.057-8.075 14.647-2.815-0.528-2.218-16.578-0.302-0.056-2.024 9.184z" fill="black"></path><path d="M147.758 279.69l-2.669-0.012 0.141-3.927-0.101-0.42 0.024-5.155 0.025-0.941c0.006-1.316-0.324-2.289-0.989-2.919-0.665-0.637-1.724-0.959-3.176-0.966v0c-1.159-0.005-2.224 0.157-3.194 0.486-0.97 0.323-1.831 0.704-2.583 1.144v0l0.256-2.279c0.424-0.257 0.926-0.507 1.507-0.75 0.581-0.25 1.247-0.455 1.998-0.615 0.744-0.16 1.563-0.238 2.455-0.234v0c1.166 0.005 2.154 0.15 2.965 0.433 0.81 0.283 1.466 0.692 1.968 1.226 0.495 0.534 0.857 1.177 1.085 1.928 0.228 0.751 0.34 1.594 0.337 2.528v0zM139.523 280v0c-1.602-0.007-2.831-0.402-3.687-1.183-0.849-0.788-1.27-1.905-1.263-3.351v0l0.002-0.48c0.007-1.493 0.472-2.603 1.397-3.328 0.924-0.732 2.392-1.237 4.405-1.514v0l5.127-0.713 0.145 1.965-4.944 0.683c-1.242 0.172-2.13 0.471-2.663 0.898-0.527 0.42-0.792 1.046-0.796 1.878v0l-0.002 0.266c-0.004 0.846 0.256 1.498 0.779 1.957 0.516 0.452 1.299 0.681 2.349 0.686v0c0.934 0.004 1.733-0.152 2.396-0.47 0.663-0.317 1.2-0.745 1.611-1.281 0.412-0.544 0.691-1.146 0.837-1.807v0l0.411 1.823-0.522-0.002c-0.153 0.708-0.446 1.365-0.878 1.969-0.426 0.605-1.021 1.093-1.786 1.465-0.765 0.365-1.738 0.544-2.918 0.539z" fill="black"></path><path d="M168.597 277.04l-2.663 0.377-1.412-9.965c-0.122-0.864-0.342-1.591-0.66-2.179-0.325-0.594-0.779-1.026-1.361-1.295-0.582-0.269-1.332-0.338-2.25-0.208v0c-0.844 0.12-1.551 0.381-2.12 0.786-0.576 0.405-1.015 0.905-1.317 1.498-0.307 0.601-0.49 1.257-0.547 1.968v0l-0.745-1.826 0.578-0.082c0.073-0.747 0.287-1.449 0.642-2.105 0.355-0.656 0.875-1.215 1.559-1.678 0.685-0.462 1.565-0.769 2.638-0.921v0c1.269-0.18 2.33-0.082 3.182 0.293 0.851 0.368 1.52 0.98 2.006 1.834 0.492 0.846 0.831 1.928 1.017 3.244v0zM157.883 278.557l-2.663 0.378-2.27-16.021 2.664-0.377 0.422 3.855 0.143 0.135z" fill="black"></path><path d="M187.689 271.516l-2.555 0.773-1.021-3.795-0.219-0.371-1.493-4.934-0.254-0.907c-0.381-1.26-0.983-2.093-1.803-2.499-0.823-0.413-1.93-0.41-3.32 0.011v0c-1.109 0.336-2.079 0.804-2.909 1.404-0.832 0.594-1.543 1.211-2.133 1.853v0l-0.425-2.254c0.33-0.37 0.736-0.757 1.219-1.16 0.482-0.409 1.058-0.801 1.728-1.175 0.664-0.372 1.423-0.687 2.279-0.946v0c1.116-0.338 2.103-0.49 2.96-0.458 0.858 0.032 1.605 0.23 2.242 0.593 0.63 0.365 1.165 0.873 1.605 1.523 0.439 0.651 0.794 1.423 1.064 2.317v0zM179.909 274.234v0c-1.534 0.464-2.824 0.449-3.872-0.046-1.043-0.504-1.774-1.447-2.192-2.831v0l-0.14-0.46c-0.433-1.429-0.314-2.626 0.356-3.592 0.668-0.972 1.923-1.886 3.765-2.742v0l4.691-2.19 0.716 1.836-4.524 2.106c-1.136 0.529-1.897 1.076-2.281 1.642-0.38 0.557-0.45 1.233-0.209 2.029v0l0.077 0.255c0.245 0.809 0.685 1.356 1.32 1.641 0.626 0.281 1.442 0.269 2.447-0.035v0c0.894-0.271 1.611-0.655 2.151-1.154 0.54-0.498 0.928-1.065 1.164-1.698 0.234-0.641 0.323-1.298 0.268-1.973v0l0.929 1.621-0.499 0.151c0.062 0.722-0.025 1.436-0.26 2.141-0.229 0.703-0.654 1.345-1.277 1.926-0.624 0.574-1.501 1.031-2.63 1.373z" fill="black"></path><path d="M198.206 261.478v0c-1.986 0.953-3.715 1.25-5.189 0.89-1.479-0.356-2.607-1.343-3.383-2.959v0l-0.177-0.369c-0.484-1.008-0.7-1.986-0.648-2.934 0.061-0.944 0.442-1.846 1.142-2.703 0.706-0.861 1.782-1.661 3.227-2.4v0l7.326-3.812 0.917 1.909-4.46 1.959 0.03 0.111c0.756-0.189 1.434-0.219 2.032-0.091 0.599 0.129 1.128 0.396 1.589 0.803 0.457 0.401 0.849 0.942 1.177 1.625v0l0.154 0.323c0.744 1.549 0.803 2.973 0.178 4.271-0.631 1.301-1.936 2.427-3.915 3.377zM201.964 269.567v0l0.341-0.164c0.897-0.431 1.633-0.867 2.208-1.309 0.581-0.445 0.974-0.895 1.179-1.349 0.212-0.457 0.203-0.925-0.028-1.405v0l-0.026-0.055c-0.268-0.559-0.673-0.891-1.215-0.994-0.547-0.1-1.33 0.041-2.349 0.424v0l-4.303 1.6 0.669-0.355c-0.515 0.345-0.942 0.709-1.28 1.091-0.339 0.382-0.557 0.778-0.655 1.188-0.098 0.41-0.042 0.833 0.167 1.27v0l0.013 0.027c0.245 0.51 0.616 0.835 1.114 0.975 0.495 0.148 1.093 0.134 1.794-0.045 0.701-0.178 1.491-0.478 2.371-0.899zM203.184 271.352l-0.434 0.208c-1.316 0.631-2.504 1.062-3.566 1.292-1.059 0.236-1.971 0.227-2.735-0.026-0.764-0.253-1.35-0.804-1.758-1.652v0l-0.026-0.055c-0.286-0.596-0.384-1.162-0.293-1.698 0.097-0.538 0.331-1.036 0.701-1.493 0.374-0.467 0.839-0.883 1.397-1.25v0l-0.058-0.074c-0.879 0.248-1.598 0.294-2.157 0.139-0.552-0.158-0.96-0.511-1.222-1.058v0l-0.009-0.018c-0.18-0.375-0.249-0.739-0.207-1.092 0.048-0.356 0.21-0.698 0.483-1.027 0.28-0.331 0.684-0.646 1.214-0.945v0l-0.141-0.295 3.121-0.636-1.157 0.521c-0.673 0.331-1.102 0.635-1.287 0.913-0.184 0.278-0.201 0.573-0.05 0.886v0l0.004 0.009c0.159 0.332 0.463 0.492 0.912 0.482 0.451-0.005 1.143-0.171 2.075-0.497v0l3.714-1.34c1.62-0.581 2.926-0.75 3.919-0.509 0.987 0.245 1.752 0.933 2.296 2.064v0l0.035 0.074c0.437 0.91 0.523 1.783 0.26 2.621-0.257 0.835-0.818 1.621-1.681 2.36-0.857 0.736-1.974 1.435-3.35 2.096zM197.315 259.693v0c0.836-0.401 1.473-0.855 1.911-1.36 0.435-0.511 0.676-1.081 0.723-1.708 0.044-0.634-0.105-1.307-0.447-2.02v0l-0.173-0.36c-0.336-0.701-0.756-1.229-1.26-1.585-0.513-0.359-1.103-0.533-1.771-0.523-0.668 0.011-1.417 0.215-2.247 0.614v0l-0.092 0.044c-0.891 0.428-1.555 0.913-1.991 1.454-0.433 0.548-0.657 1.128-0.673 1.742-0.016 0.613 0.134 1.248 0.45 1.905v0l0.168 0.351c0.342 0.713 0.773 1.248 1.292 1.604 0.516 0.35 1.117 0.515 1.803 0.495 0.69-0.029 1.459-0.246 2.307-0.653z" fill="black"></path><path d="M218.347 255.828v0c-2.049 1.364-3.928 1.889-5.635 1.575-1.707-0.313-3.183-1.404-4.426-3.271v0l-1.597-2.402c-1.262-1.896-1.75-3.676-1.465-5.339 0.281-1.67 1.353-3.124 3.214-4.363v0c1.249-0.831 2.445-1.291 3.59-1.382 1.15-0.094 2.221 0.144 3.213 0.712 0.99 0.578 1.88 1.46 2.67 2.646v0l0.335 0.503c0.193 0.29 0.376 0.589 0.549 0.899 0.174 0.31 0.335 0.621 0.485 0.931v0l-2.052 1.366c-0.274-0.448-0.54-0.873-0.799-1.275-0.259-0.401-0.498-0.766-0.717-1.095v0c-0.544-0.817-1.135-1.423-1.774-1.817-0.645-0.39-1.323-0.561-2.037-0.513-0.722 0.047-1.473 0.329-2.25 0.847v0c-1.164 0.774-1.812 1.689-1.945 2.744-0.129 1.061 0.221 2.216 1.052 3.465v0l0.856 1.285 0.198 0.261 0.855 1.286c0.374 0.562 0.792 1.012 1.256 1.352 0.467 0.345 0.984 0.562 1.551 0.65 0.577 0.091 1.194 0.041 1.853-0.151 0.664-0.196 1.373-0.545 2.128-1.048v0c0.874-0.582 1.611-1.24 2.212-1.975 0.598-0.726 1.097-1.508 1.496-2.348v0l1.082 2.069c-0.352 0.775-0.848 1.539-1.485 2.291-0.638 0.752-1.442 1.451-2.413 2.097zM218.811 246.649l-9.57 6.369-1.117-1.678 9.571-6.369z" fill="black"></path><path d="M245.239 231.432l-1.926 1.864-7.042-7.277c-0.593-0.613-1.186-1.068-1.778-1.367-0.583-0.299-1.175-0.4-1.775-0.304-0.59 0.096-1.181 0.431-1.774 1.005v0c-0.564 0.545-0.942 1.135-1.135 1.768-0.189 0.629-0.223 1.26-0.104 1.894 0.115 0.629 0.361 1.24 0.737 1.834v0l-1.617-1.082 0.235-0.228c-0.361-0.628-0.596-1.302-0.705-2.022-0.118-0.72-0.044-1.462 0.225-2.224 0.258-0.762 0.77-1.514 1.534-2.254v0c0.862-0.835 1.724-1.336 2.586-1.505 0.861-0.169 1.732-0.044 2.612 0.376 0.876 0.415 1.766 1.09 2.672 2.025v0zM230.722 245.48l-1.933 1.87-11.252-11.627 1.933-1.871 2.608 2.871 0.209 0.04zM237.977 238.46l-1.918 1.856-7.042-7.277c-0.593-0.613-1.186-1.068-1.779-1.367-0.588-0.294-1.177-0.398-1.767-0.311-0.585 0.092-1.176 0.427-1.774 1.005v0c-0.568 0.55-0.949 1.142-1.143 1.775-0.189 0.629-0.221 1.262-0.096 1.901 0.129 0.643 0.384 1.265 0.765 1.864v0l-1.683-1.033 0.426-0.412c-0.39-0.638-0.646-1.315-0.769-2.031-0.123-0.716-0.058-1.448 0.195-2.196 0.253-0.748 0.743-1.473 1.468-2.174v0c1.068-1.034 2.154-1.544 3.258-1.531 1.094 0.013 2.23 0.485 3.406 1.416v0c0.191 0.119 0.384 0.264 0.578 0.436 0.2 0.167 0.387 0.342 0.563 0.523v0z" fill="black"></path><path d="M254.148 219.727v0c-1.411 2.017-2.969 3.19-4.673 3.521-1.704 0.33-3.475-0.148-5.314-1.434v0l-2.363-1.653c-1.866-1.306-2.969-2.785-3.31-4.439-0.347-1.657 0.121-3.402 1.403-5.235v0c0.86-1.229 1.807-2.094 2.84-2.594 1.037-0.506 2.121-0.676 3.251-0.509 1.133 0.177 2.283 0.674 3.451 1.491v0l0.495 0.346c0.285 0.199 0.565 0.412 0.839 0.638 0.275 0.226 0.538 0.456 0.79 0.69v0l-1.413 2.02c-0.418-0.318-0.821-0.616-1.208-0.896-0.387-0.279-0.743-0.532-1.067-0.759v0c-0.804-0.563-1.576-0.911-2.314-1.045-0.742-0.128-1.437-0.04-2.083 0.265-0.656 0.307-1.251 0.843-1.787 1.608v0c-0.801 1.145-1.072 2.233-0.812 3.265 0.266 1.035 1.014 1.983 2.243 2.842v0l1.265 0.886 0.28 0.171 1.265 0.885c0.553 0.387 1.107 0.654 1.662 0.801 0.56 0.151 1.121 0.164 1.682 0.041 0.57-0.125 1.127-0.397 1.67-0.816 0.547-0.425 1.08-1.008 1.6-1.752v0c0.602-0.86 1.049-1.742 1.339-2.645 0.293-0.894 0.472-1.804 0.539-2.732v0l1.761 1.532c-0.046 0.85-0.229 1.742-0.548 2.675-0.32 0.933-0.814 1.877-1.483 2.832zM251.235 211.01l-6.591 9.419-1.651-1.155 6.591-9.419z" fill="black"></path><path d="M266.792 196.256l-1.208 2.404-8.993-4.517c-0.78-0.392-1.502-0.625-2.167-0.7-0.674-0.071-1.287 0.056-1.839 0.381-0.553 0.325-1.037 0.902-1.454 1.731v0c-0.383 0.762-0.57 1.492-0.562 2.19 0.005 0.704 0.165 1.35 0.482 1.936 0.319 0.595 0.754 1.119 1.305 1.571v0l-1.925-0.429 0.262-0.521c-0.572-0.486-1.027-1.062-1.365-1.727-0.337-0.665-0.501-1.411-0.49-2.237 0.011-0.826 0.259-1.724 0.746-2.693v0c0.575-1.146 1.26-1.961 2.054-2.448 0.788-0.489 1.671-0.691 2.65-0.603 0.976 0.078 2.058 0.415 3.245 1.012v0zM261.935 205.926l-1.208 2.404-14.459-7.263 1.208-2.404 3.408 1.85 0.193-0.041z" fill="black"></path><path d="M271.488 183.692v0c-0.389 1.186-0.881 2.083-1.476 2.691-0.592 0.602-1.306 0.949-2.139 1.042-0.825 0.088-1.779-0.046-2.861-0.401v0l-9.708-3.187 0.826-2.517 9.407 3.088c1.004 0.33 1.823 0.34 2.455 0.031 0.63-0.303 1.125-1.001 1.485-2.096v0c0.202-0.615 0.33-1.234 0.383-1.855 0.051-0.615 0.033-1.216-0.054-1.805v0l2.107 0.961c0.091 0.575 0.103 1.218 0.034 1.927-0.074 0.708-0.228 1.414-0.459 2.121zM259.258 175.661l-3.634 11.069-2.04-0.67 3.71-11.302zM255.47 181.167l-0.801 2.439-4.321-1.397 0.512-2.674z" fill="black"></path></g></svg></g></svg></g></svg></g></svg></g><defs><mask></mask></defs></svg><rect width="280" height="280" fill="black" stroke="none" visibility="hidden"></rect></g></mask></svg><rect width="280" height="280" fill="black" stroke="none" visibility="hidden"></rect></g></mask><linearGradient x1="0" x2="1" y1="0.548" y2="0.55" id="6a3b3285-1cb5-458d-b49a-4a21b83c7a8a"><stop stop-color="#ff6cab" offset="0"></stop><stop stop-color="#7366ff" offset="1"></stop></linearGradient><rect width="280" height="280" fill="url(#6a3b3285-1cb5-458d-b49a-4a21b83c7a8a)" mask="url(#12abf90b-52e0-4590-aaf8-71153dd1ef2b)" data-fill-palette-color="accent"></rect></svg><rect width="280" height="280" fill="none" stroke="none" visibility="hidden"></rect></g></svg></g></svg>